<mxfile host="app.diagrams.net" agent="Mozilla/5.0 (Macintosh; Intel Mac OS X 10_15_7) AppleWebKit/537.36 (KHTML, like Gecko) Chrome/128.0.0.0 Safari/537.36" version="24.8.2">
  <diagram name="Page-1" id="qU7TNp_gW_BwZq8pQVzv">
    <mxGraphModel dx="1272" dy="816" grid="1" gridSize="10" guides="1" tooltips="1" connect="1" arrows="1" fold="1" page="1" pageScale="1" pageWidth="1169" pageHeight="827" math="0" shadow="0">
      <root>
        <mxCell id="0" />
        <mxCell id="1" parent="0" />
        <mxCell id="PtzTgGSPzgL4J4l-laeS-23" value="AWS Cloud (Private Subnet)" style="sketch=0;outlineConnect=0;html=1;whiteSpace=wrap;fontSize=12;fontStyle=0;shape=mxgraph.aws4.group;grIcon=mxgraph.aws4.group_aws_cloud;strokeColor=#6c8ebf;fillColor=#dae8fc;verticalAlign=top;align=left;spacingLeft=30;dashed=0;opacity=50;" parent="1" vertex="1">
          <mxGeometry x="330" y="780" width="650" height="530" as="geometry" />
        </mxCell>
        <mxCell id="w8h_iJZJ_aDkFzz_cRFC-11" value="&lt;font style=&quot;font-size: 14px;&quot;&gt;Bank&#39;s IT Systems&lt;/font&gt;" style="rounded=0;whiteSpace=wrap;html=1;fillColor=none;strokeWidth=3;labelPosition=center;verticalLabelPosition=top;align=center;verticalAlign=bottom;spacingBottom=-50;textShadow=0;" parent="1" vertex="1">
          <mxGeometry x="949" y="539" width="110" height="210" as="geometry" />
        </mxCell>
        <mxCell id="PtzTgGSPzgL4J4l-laeS-56" value="Networking (Public Subnet)" style="sketch=0;outlineConnect=0;html=1;whiteSpace=wrap;fontSize=12;fontStyle=0;shape=mxgraph.aws4.group;grIcon=mxgraph.aws4.group_aws_cloud;strokeColor=#82b366;fillColor=#d5e8d4;verticalAlign=top;align=left;spacingLeft=30;dashed=0;opacity=50;" parent="1" vertex="1">
          <mxGeometry x="340" y="540" width="560" height="210" as="geometry" />
        </mxCell>
        <mxCell id="PtzTgGSPzgL4J4l-laeS-79" value="&lt;font style=&quot;font-size: 14px;&quot;&gt;Bank&#39;s IT Systems&lt;/font&gt;" style="rounded=0;whiteSpace=wrap;html=1;fillColor=none;strokeWidth=3;labelPosition=center;verticalLabelPosition=top;align=center;verticalAlign=bottom;spacingBottom=-30;textShadow=0;" parent="1" vertex="1">
          <mxGeometry x="70" y="489" width="209" height="260" as="geometry" />
        </mxCell>
        <mxCell id="PtzTgGSPzgL4J4l-laeS-48" value="&lt;font style=&quot;font-size: 14px;&quot;&gt;&lt;b&gt;AWS Data Services&lt;/b&gt;&lt;/font&gt;" style="rounded=0;whiteSpace=wrap;html=1;fillColor=none;labelPosition=center;verticalLabelPosition=top;align=center;verticalAlign=bottom;spacingBottom=-30;" parent="1" vertex="1">
          <mxGeometry x="383" y="1110" width="577" height="180" as="geometry" />
        </mxCell>
        <mxCell id="PtzTgGSPzgL4J4l-laeS-1" value="AWS Security Services" style="rounded=0;whiteSpace=wrap;html=1;dashed=1;fillColor=none;labelPosition=center;verticalLabelPosition=top;align=center;verticalAlign=bottom;" parent="1" vertex="1">
          <mxGeometry x="73" y="780" width="240" height="520" as="geometry" />
        </mxCell>
        <mxCell id="PtzTgGSPzgL4J4l-laeS-2" value="AWS Secrets Manager" style="sketch=0;outlineConnect=0;fontColor=#232F3E;gradientColor=none;strokeColor=#ffffff;fillColor=#232F3E;dashed=0;verticalLabelPosition=middle;verticalAlign=bottom;align=center;html=1;whiteSpace=wrap;fontSize=10;fontStyle=1;spacing=3;shape=mxgraph.aws4.productIcon;prIcon=mxgraph.aws4.secrets_manager;" parent="1" vertex="1">
          <mxGeometry x="93" y="800" width="70" height="100" as="geometry" />
        </mxCell>
        <mxCell id="PtzTgGSPzgL4J4l-laeS-3" value="Amazon GuardDuty" style="sketch=0;outlineConnect=0;fontColor=#232F3E;gradientColor=none;strokeColor=#ffffff;fillColor=#232F3E;dashed=0;verticalLabelPosition=middle;verticalAlign=bottom;align=center;html=1;whiteSpace=wrap;fontSize=10;fontStyle=1;spacing=3;shape=mxgraph.aws4.productIcon;prIcon=mxgraph.aws4.guardduty;" parent="1" vertex="1">
          <mxGeometry x="88" y="910" width="80" height="110" as="geometry" />
        </mxCell>
        <mxCell id="PtzTgGSPzgL4J4l-laeS-4" value="AWS Key&amp;nbsp;&lt;div&gt;Management Service&lt;/div&gt;" style="sketch=0;points=[[0,0,0],[0.25,0,0],[0.5,0,0],[0.75,0,0],[1,0,0],[0,1,0],[0.25,1,0],[0.5,1,0],[0.75,1,0],[1,1,0],[0,0.25,0],[0,0.5,0],[0,0.75,0],[1,0.25,0],[1,0.5,0],[1,0.75,0]];outlineConnect=0;fontColor=#232F3E;fillColor=#DD344C;strokeColor=#ffffff;dashed=0;verticalLabelPosition=bottom;verticalAlign=top;align=center;html=1;fontSize=12;fontStyle=0;aspect=fixed;shape=mxgraph.aws4.resourceIcon;resIcon=mxgraph.aws4.key_management_service;" parent="1" vertex="1">
          <mxGeometry x="85" y="1040" width="78" height="78" as="geometry" />
        </mxCell>
        <mxCell id="PtzTgGSPzgL4J4l-laeS-5" value="AWS&amp;nbsp;&lt;div&gt;Certificate Manager&lt;/div&gt;" style="sketch=0;points=[[0,0,0],[0.25,0,0],[0.5,0,0],[0.75,0,0],[1,0,0],[0,1,0],[0.25,1,0],[0.5,1,0],[0.75,1,0],[1,1,0],[0,0.25,0],[0,0.5,0],[0,0.75,0],[1,0.25,0],[1,0.5,0],[1,0.75,0]];outlineConnect=0;fontColor=#232F3E;fillColor=#DD344C;strokeColor=#ffffff;dashed=0;verticalLabelPosition=bottom;verticalAlign=top;align=center;html=1;fontSize=12;fontStyle=0;aspect=fixed;shape=mxgraph.aws4.resourceIcon;resIcon=mxgraph.aws4.certificate_manager_3;" parent="1" vertex="1">
          <mxGeometry x="83" y="1170" width="78" height="78" as="geometry" />
        </mxCell>
        <mxCell id="PtzTgGSPzgL4J4l-laeS-6" value="AWS Identity and Access Management" style="sketch=0;outlineConnect=0;fontColor=#232F3E;gradientColor=none;strokeColor=#ffffff;fillColor=#232F3E;dashed=0;verticalLabelPosition=middle;verticalAlign=bottom;align=center;html=1;whiteSpace=wrap;fontSize=10;fontStyle=1;spacing=3;shape=mxgraph.aws4.productIcon;prIcon=mxgraph.aws4.identity_and_access_management;" parent="1" vertex="1">
          <mxGeometry x="213" y="838" width="80" height="120" as="geometry" />
        </mxCell>
        <mxCell id="PtzTgGSPzgL4J4l-laeS-7" value="AWS&amp;nbsp;&lt;div&gt;Security Hub&lt;/div&gt;" style="sketch=0;points=[[0,0,0],[0.25,0,0],[0.5,0,0],[0.75,0,0],[1,0,0],[0,1,0],[0.25,1,0],[0.5,1,0],[0.75,1,0],[1,1,0],[0,0.25,0],[0,0.5,0],[0,0.75,0],[1,0.25,0],[1,0.5,0],[1,0.75,0]];outlineConnect=0;fontColor=#232F3E;fillColor=#DD344C;strokeColor=#ffffff;dashed=0;verticalLabelPosition=bottom;verticalAlign=top;align=center;html=1;fontSize=12;fontStyle=0;aspect=fixed;shape=mxgraph.aws4.resourceIcon;resIcon=mxgraph.aws4.security_hub;" parent="1" vertex="1">
          <mxGeometry x="213" y="980" width="78" height="78" as="geometry" />
        </mxCell>
        <mxCell id="PtzTgGSPzgL4J4l-laeS-8" value="AWS WAF" style="sketch=0;outlineConnect=0;fontColor=#232F3E;gradientColor=none;strokeColor=#ffffff;fillColor=#232F3E;dashed=0;verticalLabelPosition=middle;verticalAlign=bottom;align=center;html=1;whiteSpace=wrap;fontSize=10;fontStyle=1;spacing=3;shape=mxgraph.aws4.productIcon;prIcon=mxgraph.aws4.waf;" parent="1" vertex="1">
          <mxGeometry x="211" y="1118" width="80" height="100" as="geometry" />
        </mxCell>
        <mxCell id="PtzTgGSPzgL4J4l-laeS-9" value="&lt;font style=&quot;font-size: 14px;&quot;&gt;Logging and Monitoring&lt;/font&gt;" style="rounded=0;html=1;fillColor=none;labelPosition=left;verticalLabelPosition=top;align=right;verticalAlign=bottom;spacingLeft=0;spacingTop=20;whiteSpace=wrap;spacingBottom=-30;spacingRight=-160;dashed=1;" parent="1" vertex="1">
          <mxGeometry x="73" y="1341" width="600" height="149" as="geometry" />
        </mxCell>
        <mxCell id="PtzTgGSPzgL4J4l-laeS-10" value="AWS S3&amp;nbsp;&lt;div&gt;(Logs)&lt;/div&gt;" style="sketch=0;points=[[0,0,0],[0.25,0,0],[0.5,0,0],[0.75,0,0],[1,0,0],[0,1,0],[0.25,1,0],[0.5,1,0],[0.75,1,0],[1,1,0],[0,0.25,0],[0,0.5,0],[0,0.75,0],[1,0.25,0],[1,0.5,0],[1,0.75,0]];outlineConnect=0;fontColor=#232F3E;fillColor=#7AA116;strokeColor=#ffffff;dashed=0;verticalLabelPosition=bottom;verticalAlign=top;align=center;html=1;fontSize=12;fontStyle=0;aspect=fixed;shape=mxgraph.aws4.resourceIcon;resIcon=mxgraph.aws4.s3;" parent="1" vertex="1">
          <mxGeometry x="93" y="1380" width="60" height="60" as="geometry" />
        </mxCell>
        <mxCell id="PtzTgGSPzgL4J4l-laeS-11" value="AWS Cloudwatch" style="outlineConnect=0;dashed=0;verticalLabelPosition=bottom;verticalAlign=top;align=center;html=1;shape=mxgraph.aws3.cloudwatch;fillColor=#759C3E;gradientColor=none;aspect=fixed;" parent="1" vertex="1">
          <mxGeometry x="193" y="1380" width="60" height="67.64" as="geometry" />
        </mxCell>
        <mxCell id="PtzTgGSPzgL4J4l-laeS-13" value="Logstash" style="shape=image;verticalLabelPosition=bottom;labelBackgroundColor=default;verticalAlign=top;aspect=fixed;imageAspect=0;image=data:image/png,iVBORw0KGgoAAAANSUhEUgAAAawAAAIACAYAAADe/likAAAABGdBTUEAALGPC/xhBQAAACBjSFJNAAB6JgAAgIQAAPoAAACA6AAAdTAAAOpgAAA6mAAAF3CculE8AAAAB3RJTUUH5QEeFQkDVd2i5QAAAAZiS0dEAAAAAAAA+UO7fwAAGb1JREFUeNrt3Xuw33dd5/HX+3eSpjfhNGm5SCmWiyAWSLAtvaiEXUAZr6PIyoLjgqOCrBe87M7iegG1Ci6LoOIqsgyIoruKtYjItT9pT9PmnCRHCrTYi5Ry6SVt07RN0iS/33v/OGFk9R/GAfkceDxmMp3pX+nre9JnPuf3Pd9vzZdO7Xxx3JXkpnSO/H//tnIoyfWVHEhyMMn1qRzq9B3puinJ0XQfSeVwpe5PzY8kdSg9O1IX7jsSAL4i1RcxWP9a83RuT+XTST6Z9B1J3ZD03nRuTeqeVB+o1J1J35uqO+uCvQdcSgDBGsnRJLcnuXstZrkjyaeS3JT07ZX6eKpvSs3urPP3HXJ5AQRrNPcdi9jtSW5Lcm86N3Zy7ST90dTs+rpw320uN4Bgjej+YyG7L8n+dF9TVSup7EhyWV2wt11+AMEaUX/OPw+ls5TKcqovS+r6nufuyST764K99/uyABCsUX06yVVJpun+SCqfqpp/JtX76/x99gEQrOHMs/Y52IeTXJNktTvXTCa5pi7Ye5d5AARrVHcmuTnJDZ3eU8lllSzVhXccNQ2AYI2os3bzxp3pvqErl0ySd9aFd1xnGgDBGjle8yT3J72a5JJ0Lu7K3klmd9eF+5y+AARr1IT1/lTeneSSJFfXhvmNOa7vqW37bAMgWEM6kOTDqSx193Qyqavq/L23mgVAsEZ2Y5Krk/5gTfodOX5+Y23bNzMLgGCNqJPsT3JLpz9QVW+dXLD3CrMACNbI1m7U6Lyn0m/uyuW1ML87m/qwz7oABGtUh5LekcqfVdflmRy9wdPlAQRrZIeT7Ej6vZ28ezKZXV3n7/MsQwDBGtb9ST6U9PtS/baq+UfrfDdoAAjWuO5L8slOXzyZzF5d5++73SQAgjWyo0lu7/TvV/XbktxcNT/kyfGAYDGyG5J+cyd/e+wzLjdnAILF0D6c7jfVpN6VE45eV9s8sxAQLMZ1T5Idqf7TSi6uC+7wji5AsBjW2ksmO5dXzV+dzK+sC322BQgWY4frUKffUJN+Tc0nt9SFe/0MFyBYDByu7htS9b9S/ZdV9Yk6f6+f4QIEi2EdTPKBTt5Qm2bvnpx9l7sJAcFiaNcnfXFVfq8uuONGcwCCxeinrSuTfn1NZu+s8/cdNAkgWIxqnmR/0n+Z5JVV8+vrgrt8tgWsWxMTfFlf28WkXpCud3RPntNXbD7NLIATFqM7kPT/TuqNdeLRq2ubp8EDTliM6cSkfjjJa/vAwvf2FVtOMgkgWIxqU5JvTOrV83n9t/ny5lNMAqwXviX4lev+JH9Xmf3XVH2kLrjziEkAwWJkNyd9UVJvrxOP3l7bPJcQGJNvCfLwpH496V/qg5PH9tKirwlAsBjWYlIvzLx+M1k43xyAYDGy41P1rE69fra05bnmAEbjMyz+uU5ye5LfqYX5b6cnd9f5e32NAE5YjPeXmCQPSvILPZu8Pt1P6is2+zoBBIthbUzy3O68Zt71780BfMn/Nu1bgnwerk7nV+qkoxfXtn1+XgtwwmJYZ6VyUR/c8AO9Z3GjOQAnLEbWSe5K92ur5r+bmtxZF9zhawdwwmK8v9wk2Zyql3UmF6VzhkkAwWJkm5L6kU796uzyU88yByBYjO65VfmN2dKWp5gCECxGtpDkGZV6xWxpy9nmAASLkR2X5N9V6lXzHVsu7OVTNpgEECxGtSHJ0zKvP+sjk2/pPYsLJgEEi5E9LF2/2wcXntF7Fp20AMFiaGek61V9cMO3iRYgWIyskjw+nZf3wQ3P8u1BQLAY2UKSJ6Tzqj648PRecSMGIFiM/XX1uHS9sQ9PvtVJCxAsRvewdL2+Dy483WdagGAxutPT9evzgwvnmQIQLEZWSc6qrl+cLW051xzAv/p/Jl4vwr+RI0ku6/TPJPn7hQu9mgRwwmJMG7P2GKfXVfI4cwCCxei+Kalf6iu2PMQUgGAxuuf0PD/TS4unmAIQLEZWqfqh7oUf6z2LG80BCBYjOyVVL+6DG36gd50iWoBgMbSHpfPf+9DkO2dLW0QLECyGdmZSr6jkG/vyzdYABIuhPT6pX03NH2QKQLAY3QXdC6/oPYubTAEIFmOrem4f2PDS2dIWWwCCxdAekOTFSZ7fS1uOMwcgWIzsjEr9eNJP6SXv0QIEi7E9uVM/3ZPJw3vPojUAwWJYG5J6Vub10j6w4JQFCBZD25TUD1X3d5sCECxGd1KnLuqlzd9gCkCwGFvVmZ3Jf5ktbXmoMUCwYGQbkzyjUj/YO049yRwgWDCyU5L8UM/7m3rPoq9ZECwY2qOSvLQPLJxuChAsGFkl9YwkL+0rNh9vDhAsGDtanR/trmeaAgQLBk9WnZDUy/qKLQ8zBggWjO6J3Xlx71n0gFwQLBjaCUk9tw8sPMsUIFgwujOTekHv2HKmB+SCYMHIKskzuvMf54cmJ5sDBAtGdmK6frDmtbWXFsscIFgwssck9VOdDZtMAYIFo/u2Sj/DDCBYMLrju/PK+c7Np5kCBAvGVvWIPjL54d6xuNEYIFgwshMreX7PF841BQgWjO6RSX1/7zjVD2aBYMHQNiX5rp73haYAwYLRnZ7khb20+QxPwADBgpFVUt/WVU+dH1pYMAcIFoxsU7p+pKofaAoQLBjdU3o+8aJHECwY3saa90/0nsUTTAGCBWOresL8wIbn9Y5FX+cgWDC0kyv5sZ5PHm0KECwY3aOSenbvWDzOFCBYMLIHJPUt89nCY00BggWjO7sqT3PKAsGC0Z2Y1HfP5wuP8PQLECwY3QWVnJtD5ekXIFgwtE1Jnt/zyUmmAMGCwdU3V+J9WSBYMLwTO/UiM4BgwXrwtL7i1LPNAIIFo3tAz/NjvWNxoylAsGBkG1I5bz6fPMEUIFgwuodX17f3nsUNpgDBgpGdlKpzcnDhdFOAYMHIKsnWnte23rFY5gDBgpGdnupv7p48wBQgWDD6QeuZmdeZdgDBgtF9bSrn99IWt7iDYMHQNqTr2d11silAsGBslW/KZP4YQ4Bgweg2dtdLzACCBevgkJWn9tKiuwVBsGD4ZJ02z2S7HUCwYHSbKvUdZgDBgtEtJPXkXlr0qCYQLBjew+dZeKYZQLBgdIuVnN1Li8ebAgQLRrYxqbPmmTzaFCBYMLrHVsqLHUGwYHinJnlSLy16VBMIFgz/5+FJ6cmDTQGCBYOrs7pKsECwYHinJ3VWX+GVIyBYMLy+cN450Q4gWDC6p1YECwQLhlePqPRZdgDBguF16llWAMGC9XDKeoYNQLBgPXhkLy1+tRlAsGB0C+nJU8wAggWj29BV280AggXr4c/G43vH4iZTgGDByCqp0zOfnGkKECwY3VfNU48zAwgWjO6Blfp6M4BgwehOTvKEXt58kilAsGB0D+4jk9PNAIIFo3touh9hBhAsGN0pSZ1mBhAsGN2WJN5ADIIFw1tI8rjeceqppgDBgtGd1vM+2QwgWDC605N6oBlAsGB0j0z3FjOAYMHoFjPJ5t6z6M8LCBaM/uekvi4HN3hyOwgWDK77zJ63YIFgwejqIalssAMIFozuoUltNAN86fgbI3w+us9IIljghAWDq9qcygmGAMGC8ZuVPNYKIFiwHngvFggWjK+TM6wAggXrwaNNAIIF60A9yAYgWLAeeGI7CBasC19rAhAsABAs+AKpXlp0pyAIFowfrEw2nGYGECwYX8crRkCwYPwTVrcfHgbBgvUQLLe2g2ABgGDBF453yIFgwfh/Xirth4dBsGA9KC9xBMECAMECQLAAQLAAQLAAECwAECwABAsABAsABAsAwQIAwQIAwQJAsABAsABAsAAQLAAQLAAECwAECwAECwDBAgDBAgDBAkCwAECwAECwABAsABAsABAsAAQLAAQLAMECAMECAMECQLAAQLAAQLAAECwAECwAECwABAsABAsAwQIAwQIAwQJAsABAsABAsAAQLAAQLAAQLAAECwAECwDBMgEAggUAggWAYAGAYAGAYAEgWAAgWAAgWAAIFgAIFgAIFgCCBQCCBYBgAYBgAYBgASBYACBYACBYAAgWAAgWAAgWAIIFAIIFgGABgGABgGABIFgAIFgAIFgACBYACBYACBYAggUAggUAggWAYAGAYAEgWAAgWAAgWAAIFgAIFgAIFgCCBQCCBQCCBYBgAYBgASBYACBYACBYAAgWAAgWAAgWAIIFAIIFAIIFgGABgGABgGABIFgAIFgACBYACBYACBYAggUAggUAggWAYAGAYAGAYAEgWAAgWAAIFgAIFgAIFgCCBQCCBQCCBcCXlw2fuG3TnWaAz0un+tC6/J1f+o4NSU5LcpLLyLoN1s+96Yy7zACfX7COW5gfSj69Hn/vi0l+NMl5LiPrNlj/eOvxjzIDfF7m6Syu09/78Um2JfkWl5H1ymdYAAgWAAgWAF9xwXLTBQDrIFidT5gBgPVwwjpsBgDWQ7AAQLAA4AsVrNvMAMA6CFbfZAYA1sMJCwDWRbDmZgBg+GB18nEzADB8sKqz1wwAjH/CqrrbDAAMH6xU3CUIwPjBquRQkpkpABj7hNU5kM7HTAHA2MFKOpUjpgBg6GB19eGkbzEFAEMHqzqzdPabAoChg5V5DiblMywABg9WcjRxwgJg8GCtrEwPpXJD3NoOwOAnrHTn3iR3mgOAoYOV6vuS3GUOAIYOVnX2JXFrOwBjB2ve2Z/ObeYAYOhgTTr7UvmMOQAYOlgrK9N7Ork5yWGTADBssJKkOncmudckAAwdrKT/McmtJgFg6GDN12662GcSAIYO1qRzS/wsFgCjB2tlZbo3ySey9mxBABgzWEnS6ZuTHDILAIMHKx+JOwUBGD1Yk1muFiwAhg/Wysr0xri1HYDRg5Uk3VlO0qYBYOxgpVcEC4D1cML6kGABMHyw9ixPr+72ORYAgwcrSVL9QdMAMHywOvk70wAw/gmra2eS+80DwNDBqurbOrnWPAAMHaxO7kmyZB4Ahg7WfJ4D6exJMjMRAMMGa3V5eiTJDUluNxEAwwYrSTr9qU6uNhEAYwdrlpsr2WMiAEYP1sHufCS+LQjAyMFaXZ0m6auT3GgmAIYNVpLMOtd1cl3cLQjAyMFaXZ7em+4PJbnPVAAMG6xjrkxyl6kAGD1Yl3fn2nhHFgAjB2vXzmkn/c74HAuAwU9YSfLOJAfNBcDQwdq1c3pjd3abC4DRT1hJ+hJzAbAOglV/2Z07TQbA6Cesu5O+1GQADB6s3Juq9yQ5ZDYAhg3Wrp3Tw0nvTnK92QAY+YSVXovV1GwADB2seWVfd65McpvpABg2WKtXTtPdO5J8yHQADBusJJkfySfS2RVPvgBg5GCtrk6Pdve7ktxqPgCGDVaSVGdnd1aTzE0IwLDBWlmZHuzuNyS534QADBusJJkfyaXduc6EAAwdrNXV6cFU/6EJARg6WGvqXUk+ZUYAxg5W9y3pXGxGAAY/YeW+rvx53OIOwMjB2rVz2j3vD3fnL5LMzAnAqCes7F6e7k3lfUk+Y04Ahg1WkmTeO7uzHD9IDMDIwZodyWcqfUmS200KwLDBWl2dzuezvD1r78tqswIwZLCSZPeu6f7uflM8rgmAkYOVJLNJ/m+Sa80KwNDBWr1yur/Tv21WAIYOVpJ08jdJLjMtAGMH62hu73lek+Qe8wIwbLD27JrOqnpnOn8ddwwCMGqwkuTo4dzSyTuS3GJiAIYN1urqdJbuy7pzRTz9AoBRg5UksyP5dHf/cbwvC4CRg7W6Op0neWcnS/EkdwBGDVaS7F6eHq5Z/2I8yR2AkYOVJCsr0+vSeaupARg6WEkyT/9hPLIJgNGDlc4nuvNbSQ6bHIBxT1hHcqTTf3vssU1+mBiAMYO1ujrN7p3Tm9L5gyQfNzsAQwbrs2reO5K8Pcl9pgdg2GCtrEz3dfebuvPR+NYgAKMGK0lmh3Ntd78xyQHzAzBssFZXp7Mkb0nn78wPwLDBSpLdy9ODs+qf7HYDBgADBytJKrkplVcn2e8yADBssHZfNT2Szl8keafLAMCwwUqS2aRvTfotST7mUgAwbLBWr5zO07m0O3+c5B6XA4Ahg5UkKzun988m/bru/FWSoy4JAEMG69hJ6+6ufm2SG1wSAIYNVpLsvmq64onuAAwfrCSZV7+tvewRgNGDNensT/Vrklzu0gAwbLB27Zz27P5c0/O8qpPr4wG5AIwYrGTtWYOz9KXdeUOSO10iAIYMVpKsLk/vTfdbu/PXcRMGAKMGK0l2L08/3d3/oztXu0wATEb+zc2P5KOd/Hy3NxQDCNbAVlen80q/L+mfiqe6AwjWyHbtnM4q+Yus3YThLcUAgjWulZ3Tu5L8QZL3JjnisgEI1rCOHu7r553f7M7fx89nAQjWqFZXp/N591VJvyLJXpcOQLDGjdby9GiSd8zTL0lyr8sHIFjD2rVzmuq8vbtfFzdhAAjW4NGaJfVb3Xlb4me0AARrYLPDvbc7v9adS5LMXEoAwRrS6uq050f64925qDuXJZm7nACCNW600h+ueb8oyR6XE0Cwxo3W8jQrK9OPzef940mucUkBBGt0O7r755Jc67ICCNawdi9PU8n70/3KJDe5tACCNayVndNDnfyfXovWp11eAMEa1q6d0wNJfr+7X5bkEy4xwJeHDV+O/1G7dk7nSd78Dedun1fVK5M81KUGcMIaOVx/1N2vcNICEKz14M3dfVHciAEgWIOfsg4m+aPu/o0kn3LJAQRr5GgdSPKG7v55Jy2A9WnDV8p/6NoT3vPmbzh3++zYjRhf7fIDOGGNHK63dvfLk9zg8gMI1tgqb+n0y5Ks+BIAEKxxT1lXTQ/1PBd39y8k+ZAvAwDBGtbu5enh7rwn835ed94fL4EEEKyBozVfWZ5+eNb9n7rzviQHfUkACNawVpenn5xX/0h3/jjJfRYBEKxh9f25OZ2Xd+d1SW6zCIBgjXnKWp32ruVLP5n0qzr9i0lusQqAYA1r187pvk7e2N3P684/JJlbBUCwhrT7qunRXTunH5in/0MnH4ibMQAEa2R9OH+feV6c5C1J7rAIgGAN6djnWtd3+uXd+c3u3JykLQMgWEPaddX0M939e528pDvXWgRAsIa1e3m6f979N939PZ1+T5JDVgEQrCGtLk9nu5en13by/E7+Z5Kb45FOAII17Gnrqunts3n/+rzzs0mWRAtAsEY+bd07P9xv7+6f7s5bk9xvFQDBGjNaq9Oju3ZOd3X3z3fnZUk+aRUAwRrWfCGfSuV30v28JFOnLYAvvA0m+AKctK6cJsnhJB/ces725yxUvagqL0hypnUAnLDGjNfy9PZdOy/9lU7/bJJLk9xrFQAnrGHVLBen+ppUPTuVFyb5GqsAOGENZ2VlOl9Znl6T9G9150XH3mh81DIAgjVmuHZO75l1vy/J96X7l7tza/zcFoBgjWh1eTrbtfPSfUcnuairv7XTb8vaCyK9awtAsAYM15XT3n3VdLVmeUl3fibJe+MWeIDPi5suvgRWVqb7k/zJ2edu39VV31vJC5I82jIATlhjhmvn9GPz6td0+oXpvCHJPqsACNaQ9lw5PVizXN6dn+7uZ3fyrqz97JYXRQJ8Dt8SHOGktTLtY5F6/9at26/YcFy+q1M/UZWvS7JoIQAnrOGsrk4PHj2cPz32oshfS3JZPC0DwAlr0GglyS1bz9v+2oV5/22qnl7Jc5Kcbx1AsBgvXFdOjyT58Nbztv/DQue96fqOqjw3yROtAwgWI4brcJKPbDtn+w1V+dNKvrNSL8na0+A3WggQLIayZ3l6KMnHk7xu63nb/2hhnudV1Y8meXiSr4rPJAHBYsBT111JfmfbU7b/9aTzfUk9tSpPTvJg4QK+HPkf23o/dV01/fjscF5d3f+5k5d2501J7rIM4ITFeKet1ek8a98q/PiTz9k+TdWfV+fpqXxXPPIJcMJiRLuXp7fWrN/d3b88T397un+yk5Ukh+Pp8IATFiP5nCdnfOzYr9c9+Zzt3zOp+v5UtiV5UNZu0ihrAU5YjHbyevvRST+/u7+vk4uSXJLkHy0DOGExnGM/z7WaZPXss7c/uCd5SqW+uSvbKtmW5BQrAYLFUFZWprdu3br9klro908W8vBOPSqVp6Xz3VV5lIUAwWKcE9faMwvvS3Lt1q3bPzbZlA9W6rfn6W2V+t5Knplkc9a+dezbx4BgMUS8Osk9x37dlOTiredtf+BklifXJN9RqW/N2qtOFpMcHzdsAILFMBG7cnp3kku3bt0+rYV+5WQh5yV1biqPr7XnGJ4Rn3sBgsVgp69bk/xVkr/aes72UzZUHp/U41P5+iSPTXJWkq+Obx0CgsUwAVue3pVkaevW7VdMNubkmuQhST0snYdV5dxOnlzJE5I80FqAYDHKyeuzn3tdt23b9oXJxrwjlZN7Xqek+kmVnJ3U0zp5TFVOyD999uUzMECw+NLYs2c6S7L/2K9PJ/lIkj9Jkq3nbH9AdZ44meSJ1fXEVL4xazdvHJ/kxGO/NlkRECy+tKex5en+JJcf+5Wt52zfWMkjFypndOXRST2m1t7r9dnHRi0ei9iDnMYAweJLGbAj+adnHb43Sc4+e/vGTr4mk2xO5SHV9YBUzjwWr1OP/TohySOOncxO8zUMggX/5lZWpkeSXPe5/27r1u21sJATMskDqnJykuOSOjXJcZ18VSqL1XlokuNS2Zzuh6RyXFIPT+f4JMnaZ2cPORY7QLDgi3ASW7ux48CxX//C1vO2L2yY5bgkk55kQ62FbFKdTfnsLfadyVrE/uUt9905sbof+/n+WZj/s6CuH5M7k35t0m/3VcV69f8AON5/MGSjoMYAAAAldEVYdGRhdGU6Y3JlYXRlADIwMjEtMDEtMzBUMjE6MDk6MDMrMDA6MDBuyfWRAAAAJXRFWHRkYXRlOm1vZGlmeQAyMDIxLTAxLTMwVDIxOjA5OjAzKzAwOjAwH5RNLQAAAABJRU5ErkJggg==;" parent="1" vertex="1">
          <mxGeometry x="293" y="1383.91" width="50.01" height="59.82" as="geometry" />
        </mxCell>
        <mxCell id="PtzTgGSPzgL4J4l-laeS-14" value="Filebeat" style="shape=image;verticalLabelPosition=bottom;labelBackgroundColor=default;verticalAlign=top;aspect=fixed;imageAspect=0;image=data:image/png,iVBORw0KGgoAAAANSUhEUgAAAMgAAADICAMAAACahl6sAAAAilBMVEVHcExJSUlLS0teXl5VVVWAgIBHR0c9Pj5+fn5BQUFPT09GRkZxcXFra2teXl5kZGRQUFBUVFRFRUU7OztAvrAKpd7///89m5D6/Pw8ZmI+q54vsuIlbIUqXnE+dnBVqJ42UVU5REc/tqmTmJhCoZYSksENntPW7O0+i4Iagqmx2tmLycxzt6+Ql5dqbh4yAAAAE3RSTlMA18pQhQnv/hb1oOAlMGg7spex0V9n7AAAB1FJREFUeNrdnWtb4jwQhts0bZqeS4oFxIosirr7/v+/91JlWRFQMjNpYp9Pftnr4t455tCJ55lQnAcFTybMjyIphFJCyCjy2SThRZDH3k9QmAW88iOpeolen/5SMkorXmShwxBxwCeRulLRhAcu2iYuOZNCaUlIxsvYLVMkqSbEASZNXDFMHFQRkOKvl1UOsOR1qgiU1rlVYxRMKCIJVtgyS8xTRaqU20DJE6nIJZN8DBjDo2S1IYx3lGyw2DCI8YYySKyERaqMKy2Mt2IlXcL9OhmXZs1h2qs++pdBowS+GlBpYMoctVSDStahmehQg8svDSQrqSxIUqevuBLKikRFWlNyX1mTT9izBJGyqIgse3GhrEoQlZTaMseOJCEJc+WA8CEfM+WEGJIk85UjYtk4OHZpOBsHB4bELQ44SewYBzTiXclXaJJKOagKsIpSTkp7rcWFmyCCa/a7jnLsllpavXAeKWcV5T858R6Vk6tTV1gpp1VdG/CFcBtEFFfu+2jsl6zuNLRaPdD8F8mrdolCnQBZTrX09PiyvCOA8a9xLq1KqAnyTvNy94Cui1dUEGkapGdZrkxXk1Av8wJBerPgUNLvnIurYUB6qzwYdK5SDgYynT6ujGWuUHcNggKZTpeIDMZCylKIBJm+PBgpi7F2r4gFmT7CSdKYKtIpQDAkF5cmmbQAgiCRl3ZVEmUDBEFyYW87l3ZApi/EJgEYhAZkuiQ1CcQgRCBP0MoocyKDEIFMH6GF8UyjEkuLIGDnkjFBDaEEeXqgqiVxahUEbJKT8l4ouyBQk5x0XMwyCNgk7FPuFbZBoIlL5PAdByMg0xVFBo5T+yAvFOEeKPsg4KIYUJxOEYKA+5QEszI0ADK9g54zxATHOpQg0CARAa5fdAbkn2/FqRMgTwKbt0rhBgi0cRQlqvElB5mC1+4c12eRg4B3UBlmSeUQiNgvrzBn6m5YZJ+AESHiCMg+SCbqpwe7mrwdJUSOgDzBQaL+iCFTjoA8ImI1w7TwzrQo+1aeuwKyRPwOjr0p50Ib36u/Wec7AvKEORr1MYsq6qUu5nfsFle5dAQEEyL9tjwqabmwHfS3SSkcAXnEXRoqcNlXLG/BIsxZb/k3Qf37XzOwttvX37cUp9T7dfsEB3KD02y7h1niOHZtI7MKcjO7mb3e4g2yWyT6dkF6lJvtLTJClPA93HAWApBer8/IG3Uq8iJlH2R737YdyrlE5En7ILM/7U44o0hPWAeZ/W7fNUdYxAWQ17YlIPGUbZDXzQGk7X4wyEcOBImw7FqzYw64d1kGOcT5QZs5FMRm+t3++czRrtcrYNayV9lnr/cnHIum2YB+kMXKfsYc7abZCRLwu8puqWnc/t6ccrTrHgTkXL6VNn62/XMO452jaVqARdjwC6vdWuq+PatFsxfAJBPkUvc/7dXteVsccTQb/R9S4zYfVHevo4sMxxyQKOHI7aB5S6UPHE3zDNgOCtwAOeJo1tq1pERumVKBrJtj6TYqMkduYtOAbD5zaPtWf0PItw6yaE60eNCth8iDnrkJcwBKSYU9epubMAcgSDj2MHRuBkM7SALs8TQKZHMRQ7vfyrAXBuAgi8W6+UILvaQVIq9wiPkCpPWXEG8lUbNlxF6q6RpD0qvtHH3NyRyITiHZX3PCXDxzA+Tvdz3sh7uWYPjLmeZA9EMEdV3WGIhO+j1cl0VcYDYGolMQ/314kbgHotOiJASX/I2BdNrJF/fZhTEQjTb+w2cX8DWJKRCdhVVC8WlS50CsBxQfi3X2Q+T429DaMRANz6pJPqjsrHvWpw8qof2WIRCNFTuj+ejYDIjOoVVB8xl4Z9sgp1NeuDsgCw2DcKJRCSZA1hoGOTMqAdY5mgDR6RdrqnEind3u5Ow4EZBJOquOdWHmDsQknc3m5OIUpMQBkGeBjBDgWCpqkFYQGARSS4hBWq3zncszjPXLe2eR44vRbfrD9Dpr8fHNjFlmD2SteUj15XhD7YGTdCCt5qnhd6NyuR2QRafr1Jx2KCsNyFr/Pvn3E3/1xuR2JNbQvxZ/zdD1elCQ9fMcsl1wxeBiPedCgKzXi7ZbwTY92FVzyrWGe8+hwkz6llc+ATeWcevjGYA/micJxvNIhMvPdgjNJ+zG8pAKfH/esADPiI7ksaERPf/kIAn0Cb6xPJE2nkfrxvOM4I7EmThhyOfnx/LU5ngeP+2fr7P/HG3tUSgcywPB43myeTyPaPer33E8az6eh+b7XSILFcUvPQMK64GNIuvQM6MgHdQcgWdMAxpF8tAzqZINkr4EKz3DCosB/CstQs+8Yi5Ne1XsDaPMZKjIJPOGU5ZIUxi5N6xyE1YZHuM9VojDPh0sNk5QCrpkLFhhC2PvYSRmSevcs604SHDTbkSUBLHnhMIgSaFP7KTOUOxZSs6kJoyQjJdOURycjE+uXt1HEx64CHGwTBbwyo++qDEySiteZKH3ExTnQcGTCfOjSIqdwwkho8hnk4QXQW7GDv8Dd+50T5xqYQEAAAAASUVORK5CYII=;" parent="1" vertex="1">
          <mxGeometry x="383" y="1383.91" width="60" height="60" as="geometry" />
        </mxCell>
        <mxCell id="PtzTgGSPzgL4J4l-laeS-15" value="Signoz" style="shape=image;verticalLabelPosition=bottom;labelBackgroundColor=default;verticalAlign=top;aspect=fixed;imageAspect=0;image=data:image/png,iVBORw0KGgoAAAANSUhEUgAAAQAAAAEACAMAAABrrFhUAAAABGdBTUEAALGPC/xhBQAAAAFzUkdCAK7OHOkAAABCUExURfRYM/nk5/V3W/RYM/nt8vWKdPnX1kxpcfVlRfRYM/ecjPi9tfxbOPitoPRXM/nLx/RYM/VYM/VYNPdZNPRXM/jy+W+4opkAAAAVdFJOU+X96t/+7vsA6Mrx9hLzrviQa0os1qHK/cQAAA/eSURBVHja7F1pm7MqDEVEi3Vf5v//1QvaVlYNi32rXr7N05kpOWQ5CRDQ4+YD/Q/A/wB8dVTjOAx933UNG8Uxg/3nru+H8YcB6G4IQPVa+HmK0zLSgwb71zMOHQCF4wGoqvGt80zyFH1vpFMxY1D9OwDeCt8U3xRcGlOzDQE6cOX50nf/TvQVg24DAnSczfdNwc0c/fuRMjWovgkAW3pm8t81+B0lKDqLP0RHSN93zQ8J/9KCphuq4wFg0rPFn9AvjsmIAIosf1eg3x2FwROgmNL3P2X3BjModCVAEb3+L4S8XVagIhAJgPEU4s++UEEAxVL+CZ1jqAigSOKn6CwjLSQEUBzGdx75VR1Ad3B9KgJiLEChlPd04s+UaIwDwG/THhgjCgDgXL5PcYT9GApAxTj/ScWXHCG6fuTfdgPId/kLdO5R9AEAVH2RorOPlwr4AHDO2GdRAeSx/KdX/1diOFdKkbv3u8Lyr2QAOcs/oYuMtBndARiay8jPEOBcALlyP3ShwQMBcpM/vZL8qBmcAGDuD11rTMwNwgGougldbTAbQGD33xXp5QBgNoDA5H+6nvycDSKw/OiCI+2AAFxUfmYDFQLZf3NR+ZkTQLe1/wWAHt1aflR06L72DwSgurL8aGrQbun/yvKjtEB7/O+69j8DkKI7r/88dqq/6NYADA26MwDV0Ex3BuDCBBgGwNgjdGcAqn66NwBXK4C6AnAPB2gHoOoKdGcAquE28iOL/OmtARi7+8iP7poCbAFwixRgA4Cqm24NwL0MwADA2KS3BmDs7yU/0osA9wZg7BC6NQA384AaALfigCYA7qcAMgBVk94agDtlwUYAvl0HpvP4HQCq4QvyU4yzLHuyUa+D/5hlGP8LOL7HASiTHWfPuizbPE8I+VsHIUneliUDgqGAv4uCGAKmQ8XPniWT+297kKStn9k3IfgGB+Cyt3kir7oNAZIkTB3qJ6bfBuAYDkBxVnPpAbJLisBMov6KJgh1kPQI6dnaJ39egyTMKWSHK8JxhTDm9JjVk7+QQfLD1eCwrRCa1YHSf7wi/QYAY9ytAAxx+TAEGARlRo8GICoJiqD78kgOjArxYyD3+6bFZ/ENGAaNf1we5A/fLnCKZ/tlYhCLB7YWoBZJzsIGMTGG5BhDeNfCIykAfbaGBWQqnGHjJyYVYL+cmUyIOYMDIHgfCI61+trESc4YTTbzYKjF5yVLjZ617kXnqHgIAFFYIGO8CukhhBE6Tu2zuiVOTo/5PCOJSsrY3jBaHkSZ9hN1KduaTZfJ37rGhGReas4lVDWI7QqiJcJY831kmSrFtQ8Zzp82n5o8aWwA+mAajJ/KUpH2xePZ8id+LLjE76iqOBZmBzQuAKH7wVxVVf76Ctv06ZsMcQ16oau6EBYocEwAQovBWFHTZHXW9BlACcnH3LEaREi0cBChGIxl4sdJ20oLkqA8YA383BcQ2cRoNACCgiCbGVGXjcaRnzuCdaGZm5HNrI4SEEOvRSg2Pkfw9bM8OBcUyB/jGZI9xSGGYZkwy/vEOclMbcv+GUViuUFblnv8mKz2xP+jxDTZZzgGAEOI91eWn4of2ujPUvGbdwLwbtmElFjyNzLg4byQuwDvP85aOTxTCRzb2hLRTPbthLSSjFiCVYbHDwB/GigvsWKRuCSWUmcmb33gepcTSsBiiXMkoYzAvxoqUTyiUnRq5L+M3mlKSzOHUPAiBUTKDUIB8AuCWMx9mPdT5Hq2xgKnwWZ3Afj7U2SUs+7A7Mg3E8RiiCe5ykpMBsC0BBsD6X4wVAvDVPSFqoY4AuDnAqhkiNoayB9/bBnve1LzaDOdfvzFQcAPAHEFTJSMGmJbbuSuxhKioR6IdQ8Uhxd7VcPEDJ+b/9bnQshWi8f8mEBdgtiyjp6UHAQg4BMERPsnpoXNTPJTZdOwXnaMoZSYGpYhN1JmRwDciyFiikMSwxcb3Joiv3uRxPg9kiJ6IuBRDxXt3/i1ultLRDcOLZBvMGKTKrZ+fMC5GiSmOGbF05NgcfY089s2y7M9Y/RjRJWjBYgpjsXwcLkRxXxLhH/EHEQEdUy88oKxcZS/tLJ/qwUIc6eQqA+igwbG4YWAIwDi/BOL21FjIEnwJkN2q5NvumSPzMgtCgrFf6vbpdr+yOoB3XdINviwwQ94bBk4RUEh7lipB8W5GsLx56MypEZoU3CxSOJOiFyiIM0+32SnXlqBI6ltBDHJ2QBzoT9rnBP8gDshcgFAIHh22kHVVV7nLRNElkM8n4wQttComNcAzUxaRzfgcDZKCG/ErmmaC/gUyqTSz1wXWwYGbp4k5UZyYuZcgAE/IC4o8Fa8wYpKrxaQ5eru72dnCeYbWwpgJ66cGA7Aattb8tOMWKIXrYmtkgfcP88xiJ+5MUIwALQkENZNn8TCX0QL0gw1y0EA0C2GvhcvzQO6KULXKVoYyTsqKwB81lqIDrqWaopjTge2JFst1CktAgPwce7bZEMrcn8AEF2IIbkHOMJ8+5s/KprUDgBAu8V9JrizFaFlQp9Jr2VSkwpRwDGSHZ73oemkjH+Y7KOie05WB+D9SbtJ6SjAC+xEuNX9tAcCsBGMzalg9uEH25wWAwDYWdmPluY4PgBvdPfsCysAEAMAxoWkbTgAbyvL4x+oxFAArBqAvwrAgRqwOwlzFBBzJCMAuA31AceawCeRcXWC7euwoJAjHe8E4wOwUnzXMDjzRvkgUfsEJJHuAAhhML78a5JHtutOuNZPOLd8C0QqEh9BhFaM8yOIkGDDm/PQqPCc+ZM9Tgs6T7ZpfdSHCqcTmAoLTNMtGbLsdVL7VqdfMrT6EIeKQFrAARCSGbLlZDLQrQh5QxlYLN9Mh3OfdNgJALqdzaze0ukc8KtYDkKt3YBd2B9xYEFT41AQkepOdjeAgfWt9lUTohh6wXCzJEa8KuMcAHhNUCwKW057AOPZ+2ZsPR8QgO6V2Z27sFHutjtUNC5FUYnN5eCy+CYIicM+sdX3Yqks7hLciw653ZgVVtdaF8LBB4SdN0aSTY61BUCP3I4HCIe/4FtjkQapUfStMQ6A4+Zoubc5DqrtRNwcFU7RE+djo02PXI8IiQVs6PZ4JAvI9lyO+/Z4MzgDIDKOP+gBiSjDfEAiSH7UjM4nRGQvb6481Ec4gSQzTiYBRIlNAB4dCkDAeEjuEBsw5qDSwXGfI8NdxQBwvi4inkoxMiJ8gAqYYo50UNCnDjjxx9Y8WmdI+/zGg5J5bAQM2QeV5fc5Kjo/t+dza3QPARw9EuoxUD5knD8R8gTA676EZAUG74sjq4BeQ5I3lD2PCs8vTvq1DpDcTwI7Lh8wTMflw+VHHQfA88qQhAApVVdouTHk6wGUGg+VLo/5H5SeH1317Z4h3wrUr8zkMQ0Aq+YvXhrylj9dnt31bZ5AsXKJkTrXBqFJs/qv271T1MAo2M8PL3tfnaZYXognPYYQKwYg350MuUFcLC9PBzQRk1RR6XBCs0hpsRxksHSL3HRdBW4Br6e3Q15Uko++y82OIiEg3Qvk3VjkwmLINnC/PL5eDQH/Q7kgLStkDEco1biUq/ok8Po484HBAKglQKaTNGZphAj5phz8PNMfcQwLAIGN5JR7byQXphVMiUWKn8mHavXLqq4uoGAW8EDh70qqC8NbYWGjx3a3/09k0RrUJcEtNKbuDUDwoxpqpxihDyR9BnjCD8Xmrai0PiWhp2AK7gIWAMbgRlpZqV2SwOHVkRJbTIkkEdroFOMbgBg91bFaAkjevoBmfmnB+0YuU361KW2Ublppw+V/vT4foZ+o3kL03QZS7X0CNv/lj2v1lh33MSh8FN1jBSBKR1nmptTbUrwvHu+m5nxTcoklc0M55S/nFgwRZouaXgAgTldxavD5iz90vCxJEt4cheqIzi0YIh0BbEYBgFiPS1FDGYDw/ogYu9yX4uLPa0/0DeJY57+mRQEe736CsboqG1aNQ5CXdc2MGWb87HeXBvQ6K4rXZbmRAYjXWd/SUpfpLu+pSgDWz37RdGIgcjvNbpAAqGK+L8XjlklSQgCu0Pw7ix3FmyJK+1EC4BH3dRGWIUWti/OggKKO4qUAD3TM4wIUZ2UST/xn7Fcn0lcMWAGI/s4yj+FthO7iC5dAkcc05wESAGP8d1aXhyUCMJibrh3RVHzJhCUADnppmHGjNgc9rWE6QBXZ8YmZcKUB8BgPemnUs9U8j3qHvS7RDAYAqqPeWOHP6/A70mCHQPgbK9mBr+2kqwI80HceWqNz46CF4G1IzttMLp0WD31U4s0CFQCGw5/ao7xles0p4dw34DPyuZFAOz+1dPyrKkwBRiMAX3tuls6PbTF9eA3+1laWfe+BqaKvjADE6rEPMwltfO27+akAMwCMDN3iucF+tADw9ef2/slIC1EBZABu8ej0JLpABYBbvDpdSPIrANxABaQQoAFw/Wd3U9kANAAurwKqAqgAfIEO/pYCaAA8rv3y7jQ89gAY+/ROCqADUF04FKZCHcAKAPeDF0Ug1TygEYBo+2Q/yAF1+U0AxNsn+7HRDA8YAGN3yUhgMgAzANckA2lnUgAzAIwMXA4BlgVXcACq/nJ+cDIagBWAy7mBSadAWwDwU0OXMoLUGAG2AKj6SyHQWAzADgDLCS5kBKlVfjsA3yySHz5sDmATgGq4CiWeuqHyAIAhcA03YMoBQQDw7dILIMBywC0ZNwG4RF5ozAGBALBQcHoEpn58+APAE8P05Ou/Lf8eANV4biuYmrEKAuDknNjOgOEAVMOJ60N2BgwH4MwIAOQHAHDavCiFyA8B4KQIwOQHAXDOOnHTg0SDAVCdLzWErT8UgDk1TE+l/wNMfigAHIHzcMJ0AssPBuBU2yVFB5bfAYDzZEa7/N8TAF4mPIEVsPx/rI4BgCHw+ycpp6YfXWRyAoBXSqefl796HAjAz++bdoOjQK4AVOMPb5w6mr8XAHNmUFzD/D0B+FVOlLpE/yAAlmjwYxCkXsvvCwA/Szf9mvr7LL83AAyB36IEjbv3CwOAmcHQ/UqZhFv/f82YuQ7EIAxECxcrJBRx/f+37hiiJNutYGxCmTSe52MMdVbHNIDXTAJ0f6rzKhYA6Fa03w40/SsalgC8wBEF1R/3AdDFcOczQZsffiQAWgTYDGVX85e4Gv8ygGGJ/gg48ikAxv3A/9mrUkLnAPBejND7pcY3AeizIPkwQO3T5BMBDEc4QrO2fcinqecC6KuRbodmA1F08uVIjZgMYJSBEQE5dOvh6qcD6AgwDdi+KNzOtwRwMeBBaMFIvRWAyxVCaIsXRmlQD9OLVnGaATi3g0VrxF0v2Yk3B/CJsaIb8pQ7yqh7+tRzBXDWQS3oBwwFcJC/Ov5IKeei6s2jcwDwoDAwAISepkfg7Tj9Q9BfCdqLfeLdATxAaFOAxI1iyEbOs0vOf88XZilnavrn5wsAAAAASUVORK5CYII=;" parent="1" vertex="1">
          <mxGeometry x="483" y="1380" width="60" height="60" as="geometry" />
        </mxCell>
        <mxCell id="PtzTgGSPzgL4J4l-laeS-17" value="Open Telemetry" style="shape=image;verticalLabelPosition=bottom;labelBackgroundColor=default;verticalAlign=top;aspect=fixed;imageAspect=0;image=data:image/png,iVBORw0KGgoAAAANSUhEUgAAAPoAAAD6CAYAAACI7Fo9AAAbeUlEQVR42u2dC5Ac1XWGVxhAUBUIJDFC070SWFVAcCCOAiFOxRaYFGgfQotDUsHW7qyEVuDYgQQ7wdgOY2E7wU4FbFJl4xirAHanu2dWD1YPnrU4BTiOSYiTooJNAYqgKFcMYNDOY+fVOef2vbM9o13t9DxW07f/v+rWPLQz0zPqr8+55557Tk8PBIVErtPzPjfRc/xC/za9wL9BEBQWyKfnIH7bOee0zHjv2pwTuzxrxS6dcVavqLkYuD3L8ItBUJgAJ2jJih/H9zPJlR/KWbFkJmm8WUiZrrvLdMuTpptNGjM5y3giY8UG1OscAh6/HgSFAXIC3O3xrHPONm5nqN2pXreQMtysZVRolGiU847hunu8fyMLbynIXcAOQSGA3FWQm992DzDERplGQULu+gY/LvK/uft72cI/6wJ2CAoR5Jb5HXefgHc+wI8YZPnzbNnpFrBDUKgg96y4G2DMem688UPADkF6Qg7YISgikAN2CIoI5IAdgiICOWCHoIhADtghKCKQA3YIigjkgB2CIgI5YIegiEAO2CEoIpADdgiKCOSAHYLapUR3Qw7YIahlS85FI3q6HnLADkGtuux8m0nSfvLuhhywQ1BTkMsab7lk7DZRNCLZ9ZADdggK6LILS37YOuv8Wcdws7YoGFEJCeiAHYKCWPNM0viuuzcULjtgh6BAkMvg2wvOBScSJAdLaVPVenMBOwRpFoDLW+YHcrZRzFlV190F7BCkiVSp5RkrdpGYn1uhhhywQ9BRLbpjrOG66xpYdMAOQQvN0d39a04iKA6FfI4O2CFoQdhV1N2K7ZBgFDQBHbBDUP08fXbCuLA4Z9ErgB2CdLXqdmy7e2CVgEMj0AE7BFVhl7vWyIX/fkhy3QE7BDULenW+DtghSFPY5XIbKwfYIQiwA3YIAuyAHYIAO2CHIMAO2CEIsAN2CALsgB2CADtghyDADtghCLBDEGAH7BAE2AE7BC0tpsu8MbeRBbADdkgHJRLHrUtMH5+gW//T117rvI+fl+ADdsAOhVUeyDVwn9x/3fjpdHtizd+tSxwP2AE7FEIXnS023+uLOyv6R9Jf6B9xnu4fSb1O463+4dTBgZHUo/Tcjevi08s92KcBO2CHQjgP7+mPpz5FUGeHxh5xN2yZcgdHd7kDozvdwc273auv3+tupOcZ/vXDqfXzeQCAHbBDXck4AS7n4gTwXUPbHnMH4pNu34hToMclGmUCvyJuvcezCvqBeHorv27t2L0nAHbADoUAcnLLvznkWeuChNo9ymDgK1dfv4/uT44BdsAOhQ7ydGURyNUoe7DvBeyAHQqZJXcDDsAO2CHNIQfsgB2KCOSAHbBDEYEcsAN2KCKQA3bADkUEcsAO2KGIQA7YATsUEcgBO2CHIgI5YAfsUEQgB+yAHYoI5IAdsEMRgRywA3YoIpADdsAORQRywN4C7DnbeFZB7gB2QN7lkAP21iz7Mwpy122tKi8EyAF7Fw6y6Hl3P3+vmAUXHpC7IRuAPdgosGXPWLEB/p7TiZ7jAQMgB+z6wV5095huzjKegFUH5IBdX9gredtg0A/POKtXAAhADtj1hb1cnjR5rn4poADkgF1f2EvuLnLfndjlAAOQA3Z9Ya8UUqabGe9dCzgAOWDXE3aCXNz+4m3nnNMACCAH7HrCLpbX6Dsk5ffC8hogB+yawV5RgbhMcuWHsLwGyAG7jrAnyZofoGSZpHG7+C7TsOaAHLDrBnuBjzNnm9+u/w4QIAfsesDuQW6Z3xHH3tOzDBtaADlg1wv2WsgJcFhzQA7Y9YIdkANywK457IAckGNoDjsg14jyZQJ0QA7YAbnGgiUH7IBcb117rSOymfrjqb8f2vYoIAfsgFw3rVuXENlM/SNO/8at+/kELfIJClAjDTsg11BiXt43kvrJhi0P0wmZLgLQSMMOyLV12UdTHx7cvIdPyhLAjDTsgFxLtz0xLdz2vmHncxvHDmBuHm3YAbnuoJO7fs/GrQT6cApuezRhB+QAHUNz2AE5XHeMpYJd/V+0AntmDvZZWRTi6EUjkoAcwTiMJYJ9nzsQT2/1ljrbAvv33QOrRAlmad3LWVtC7916z9N9r2iE3E8OyLG8htF5y75+OLXegz3ROux2bHsxbbpcy62UFl1UhAXnW37s7u11Zx3DzSVjt4nX0jmQAOSau+9ImDnWozS4eTffvr4uPr1cYttUEQdhlWUBiNkJ40J25QnwQ1x3XYBtG0W6fzCTNL572DrrfHWBQNGIqLnwSIE9VmN2o9hf4NzYyny9Cryvdpu7f81JecdYM2PFLspb5gdecC44cb6/g6IibGo5hiNdZPedpk+P+i+8rYh7li8EMj9PVhyuejSFbarHcq4u3Pfh1EGC/ER/7KTl/9UeL8gmwGc3vQduOoTCE8dmDKcqA6M7+f5b/deNn97KPB2CAHs3W/TRXSIgRxb9ZIAOAXZNI+8btkxxMO5pL1ySwPwZAuy6jb4Rp+D9vukvtCPqDkGAvQvd9oH4JEOe6Ys7K/wrIBAE2PVYVuPEpMLQtsdcymH4FKw5BNj1HNJlT93Fv2071s8hCLB3IeT8W85F2RFphwC7vpCL3xSQQ4Bdb8hdQA4B9oVGhTPK5FbP+lGRgS5ADkEhgb0iCmJwmSuv1FWJIeYlKc4m4xzxDVQ0g8egGLtdkU4aT6v93up1RfkYkENaaxlHdXn5hiuZiEH3W4r0dg72soKTqq+4XBCD98pzuSve5eWtO6cyNH5O45WB4dSLdPs/dAH4Kd3+L92+yVs/+UKwces+73V06+37Tle8904v5b57QA51Xo2UKGoa+PbBXlEW2wPUg5Me52g8T2Du6BtJ/yWB33fVcPrCaz45edaGzff9Sk1hRTqW9Z/Zf9LG+K5fvSqeXD0w7FxCr/mTgXgqQevUu8VFgS4S3gVjn3fBqHoJgBwKuRX3zi/3OIZkYDj9d3TyPUTjQTr5t/cPT14W5ILQAdjZnS4IAMlqX339FKWEpg8R2N8jUP94/ScmjXb9GHxRoOyz36L3/TQd53763BkP+imfF9HWuT0ghzo+iZ6Dj4Chk+5ldnv5xBZusHSFvTpxqf+ik/FjS2rZvUBaQVhv728z4gI0mr6SrXL9dxFTDjHtSBzPFy3fktSyI743Dd4YIqYqR5miXEleAW0kGaNjeYbdellKq11lrwE5tASBMnlSUdWSOxloWZesKOCbC2wVvJ1TD4u5L1n4m32WfVlnYPfSPjlgJktMv0HH+EWGrma6IWMJbc77XsYXifnAF27+sDPOxyeAFxeipgtlAnJoiaPhXANu8XmoiEhL8D7bQdj5GCryc97izxocmzrFD7cEcGmgoOPkz/RvC73qk865PK1hT0O69AXpfQByqEshr0LWwLzTO5lLbM24oUPbYY+n8+w5sCXn5zhg5p87H+sdW2pFQj0ejFsX8/5wvij5gnaAHOpWyIOvWbcbdt608fEbn2S3/d8JnrU1gHdZ6qdy7asufTx9Ax1/3ive6BQAORR2yDsDuwJmdPJPx8aeO6EKeJdDwBZeufR9102u4oCdDBqWBo5MvAHkUKggbz/sdbuywrYVU12cpGfyD3Jt39++CpBDoYS8A7CrjjDhBMC7OFVLYQ+LOENcVG3NA3IozJB3BPaQ/+DLVBZe/7B9GWfsXXPjE9WiEYAcCivkXQs79woTDQlkN5KakaAhmxV04hhVgwXOKKRA3der0xNADoUY8q6AncGeTkiQAzYEdBPVC0Dblu9qO56iMgykB+THDHZ3gf5h7zrGGdwtNO8YV+Us4xN5yxjLJGM3zFjmaMY2N2at2KXZyZhRDzf3G2vmYjGfVIotTkpIJ8gXg739gPuaALoPrTk1Y68czFrGt2j8W8Yy3uY2wO5urwc49/sWg+/v6XXLkyb3A89lk8bPsknTzluxbdxJtOYzGHj0IYMAeQOwxz3Y2+W6iiaABLl6zJY5Zxv3EbT/5+4xPZh3mW4hZTDIFe77TaPoH7IHeDlvG26FgHcf9i4C8m+nqX3wMLcS9gOPEwwC5Auny5a9NWWvu0irbYSeu3dtdb06lzTWZW3jSQEqWelCynR9UJck5O4io0IWvey7CLjiYjEloD+UnYjdrC4qYh7vwrpDgHzeNkIe6M7jrYCuAm3Cgj8UMwjCSbbaDKUP1EbAPvqw5zyAUtrzDuj9X87bvYPqWNRxQBAgr2kjlHp3/ajzG82C7p+HzyRjcQqsZaXFLWU9F9zt0OALSEG59nT/gZe+5bnzrs+zgKAoQy6OhXd19Q2ntvEx1pRzChBwq7rqlvE9trAcYGMAOwh4/RAWvmrdnZXnAnYIkNe0+E39uHq8TULuOhecSKD9wN3XqwAvLyHk/jHL0wWCvcDxAcAORR3yOdCHJ6/g4wy6vKYgf80xTibAnpeu+uwxAtw/ihz0K9KYmTCuAuxQhCFPF8W+7OHUk3ycQRNG/AksBNYPuwjyqivP0wcxhUiu/HD9agAERcGSz2PNE8GsuQy+ZS3Tke56N0EuBq/Dc1Se4gaHCXazPp4AQRGA/OG5uXnAKLtyg7O2+VmGPNeFkPtGgZf3MknjP3wXKayzQ9pDLmqmcVOFgU32VmHNE43PzZVFnBmP/bbIavPWtFtZG6+w5c1ZZkFlwsnhz5QrtxygowtS3jLuhAsPRQNySnuV6+bvXLnFOUN+gWWNf1XPGhLgP+L8dJWp1hTgZG05vZVz2kVKLN3yerhIglG571Nevru8CJRaSLAp8/tmnN61cOEh3SGX1lw0N5gIGmlXueTkBm+ROeeF5qPihspbzxLw+2fs2Oczlnn1e/bKP6Clsd/LO71/xDvZZH78QXExmLuwNONBFEWGnm08VR9MhCC9IJd13zndlVolfTwI6Gp3GMNO0LwidpUlA7vUFQEcWemMZbyTS8ZuyyTNlYt+9nNrT+CLgIrusxfQpHUXsGdso4/fF2mykK6QV+rTXRtNklHWPGebm+VSWqEJyMvea2NJ3ofun/fz+0+rijJ1FWf8x8FWniGvTAafNrD7L/Pun/KvHECQTpCLaLvXqjj42nl1bk57yEXmWTCLKgJ2wvW2zVv8lroRF5q9CVlkQvzt7ETvBVnL/Lm7s6kYAebqkNaQV/PaKVnmy0Gi7QqGAsFRTJtuE1HwEs+x6fbTyjtodo7MqbbCs3BW9tJ8+81SOvBFp+DFBsy7/J4KBOkCedWi03bUfm9+3liSTDUIZ8W+EjQIx5F16erfI96LlrZarQajYOdiFrJwhRsgQFeWbv9LykNAdRpII8i5Z1va6zu2efIc/h6NbketWVIL4LbneC7tudc/rX+vlv87lGW3Y9ubWAGocB58ZhzuO6SXJRf7zrmrKEXbD62L71guv9ii0CkXm6PjBEhGRrwrDa5fF9llp3zzIWXN2/df4l0wXt2xejl91uulAFOKnHLfk8ZfwH2HdILcvyX12UDWXFq7vL3yikBBOFp642AZRbpf6JR7rC4cOdv8IoOba9yqF+V04gGADukEuVg/l4kyqWbm5wTFZ6SLXAwS9MoljQS/vhNpp8rb4CITdVlwiwcHvT3rP2rndAIC5N2REcf9wUdS/xQo4q5At81/DAS6suhJ8w+XYh6csYz/Fp/XmMdRlq7+IZdcf8AOyPWAvBb0O5oC3TLGpbvbCOgVWUrq8MzE2Wd2EiRXFaO0YlbQ48tZ5ruHHzjz/QAdkOsBuQ/0vnj61kCgS0tMFnNKFF9srNBjWTZeOFgt1NihJaw5j8P4RgCPg3fMiV1t7yRXrPZPAyBArgXodPs3zYDOG09E0ksjoJPbXvECcS922lLOpeYaiYZBt6ugF/PjvecAdECuB+RtAD0Liw4B8lCB/iXM0TFHB+Q6Qu4HfST1DUTdZdQ9abyGqDsg1w90sY6e3iFAXxcQdMoia2od3TZu59d3ch39PV5HV+vnja6j78Y6OiDXcnjlnfvj6Uf4Oze6RbXVzDiytB3PjMsgMw4C5Go45Q2b9/D9F5qxmpzrTtY5UK57Tua6E/RD7bbqygpz22TkukOAvK66TN9I6peDfzbx6/LHWBYEqkzAohNLsnvNMr4c0JrP7V5D8QltKY8q5DU72AaGnUsCue/V/ejmV5rYEurtR7eNbyp3u2370amIpIzuB96PTt7GS9W+cdiPrhnk0oJFFPJqPff+kcmxQJF3lR2XNH+3lQozedv8c3XhaLXCDHdeySSNpivMzFjG3XDbNZTalkkpoHdHEnJf5J3c9/uDRN79LnfLNeMs86+q70k14xLN1Ixzen+T1s1bqxlHFy247ZpJndB9cefWoW2P8Yle8CquRAx0CsgNbt7NwL+USLgKsEBVYEVN91aqwD4sgmATvxzvPd3vMTRaBZY+fyvD3UwVWM+zQBVYTS25d0L3b9n5wYHRnSIoRSd6BCH3BeXodxgctX4n0Dxd1XWnOTaBcrANdd3fnpmgpg0Prjprsc/maD1Z4A00z3+29bru/NmxAX5f1HXX0ZqTu8rz074ouuzzVoJ1/pZ/l7Vj9za85FXdQNLeTi0ZipjvoznzrQJmJ/b72XHjkrzdewUFzLaSBadOLbFX29apxTJ+4F82hLQJwPX0DI5NnUIn+BsccebIc8RB9zqpDjv/GWSJbd65ejt6rzmGy+686r1W7nTvNczNNXbbN+08v7YaaqRB95bZaK4+GJ+8NIj77gdkxmlfN1W5I06BXJbv1/ZuqnT7dTUVAB0aSZ3AdEJfLKx5tOfmR7ZNHkn9c5BltirsEpSZCeOvQ9Mf3TKer/dKIM0s+mA8fd6cJYdF97LkRI33w31bJlf5lx8DuPDi78kap6S17EbYS3KX2gx3doHLrvkcfV18ejmd3K9jjl4zZq+54Qm3b5OzyR+0bPiX9QWzCKh/lUtu3QR7ibPmROYctWKGy6571F26pWS97hM100acAiBPFThpiPIK7pbmuSlXtppC6hgnU3T8J10Eu4jqcxZf3jLW+6cbkObu+1WbnXP72V2VwaioQ85pwPWeT0uwe7vI/kW68YU2BNCaD7ztEgUoCjk7dhkgj6BVHxhO3zS07VGv/9hIJANztZDzvNx1Ww5M+ee9vO7NS2V5b7NJYSlddbFW7u1ke3l2YuV5gDzCEfj+eGr7RpHrno4a7B2BXMnxwT5jmaMEXU668qUGC0o2O9hzKHBKrEyvfZC9C0AeXS1Tbjxlx90RMdg7Crl/2UqllWYnYwYBvpPdaJlfXm4hq22+BBhhwUVyjZdh90rGMq/2BQuR3hrlKLyy7BGCfUkgr/mVfZb08ETscoJwWlhcsvAcJMvVJshUGt0Q40ugqWbOEfSv8Y44lZ7LgGOdHIoa7EsOuX/5zT935xz2TDK2gyD9hchb55RXsvYiu+7ITDhveBeEMm9iUa65LAFVpn97ioJtI6/KKq7iM7G3HIog7McM8vpAnX876NvOOaeJzSuWcQ+NH2cs4x1e667mtu+VY2ou953+Lk8Btp+R5XYyVuxGCvStqfkM3s6KKjFQBGHvCsiPAH4ei/ve/bFfm7FiF/F6dy4Z20QgbyPLf0PONjfTBWBI7GajajL1e8eFxzANNx2KLuxdB/l8AbtmIHXV67DFFIo47F0N+ULgO3UVZapDVZxh6w3XHALs4YQcggA7IIcgwA7IISg6sANyCNIcdkAOQZrDDsihCKPJHT3ql2layn3uStgBORRhyBfZrdR8mmRXwQ7IoQhD7ts8kXOMj2Yt43M07swlzS9lbHPjWw+tOdV3QTgupLADciiigJNLrsDNJo0hgvtFsf95r29zBLfgoa6bOTv2+fkuDCGBHZBDgJys9lcF1F53zVLOMrmEUVHdivY/B1YR8LHHqj3EwgM7IIciDLmqK07dN2RBwqO17OGiBXnxd7bXSTMksANyCJDXQV5pqEIoFw8MB+yAHALkTUAeJtgBOQTIW4A8DLADcgiQtwHyboYdkEOAvI2QdyPsgBwC5B2AvPOwU0eYgcXbP1X6ADkEyDsKeQ3svPRWXWdvMYOOO8KI9k8EM4Ps9Xuradlcls9XhrY9Rg0P03cDcigccMrKnNNztb7ExpJEQGiWGPI52Pf1iqQa36E0lRuvOsJwrzfuQ85dXGXLZrbyAnZ+vHHrAXdgdCd3Nb1VvbaVhocQ1HnIpxffVNLFkKuR5ww6lS7bQkOAqmXfwF1cqWUz92dXgEuL/gZZ9Pv7t+z8oGfIyZIDcqhrAe/xpaImzZVZ27yF8s5TOct8PJs07awVu/nwA2e+X819j7aD7BhDLjLoOF2Wc+PfeuiMU9UxNfvbqC6u4n58evlgPH3eYHzy4v5NO88fHJs6pfpv66bRYQTq/rm0BPMmYRE555xb5+zxtdCxjEzGjt0g//64+eDpAsjVKIqNMLTrTU5HWoKQ3Xg/8DUXAgJcufkQ1L2Qy+g0WfKvuY+wy2twX6yCL++8yI9Fy539DE9se9Wy+2DvIsi5t3ZBROFpi2uL7vu8c3d26T244aZDIYKcW+nIPthFuXlkoU0lokk9Bbvu8Lvx3QR51aJ7Xsid7QUdgsIIupyXkwV8hhvkqXa2R219a9fBPu1F57sI8qpF5+IVAB2CGHJn1dkMhq85vdso7BTZvkO9T75LIJejxMUruFKN33OBoOiCPmF8lIs95BbeB75QU/sSz9mpe+ZtuaSR4PtdA7lXvOLFqueCnl9Q5EG3zY80AbqCvcyvlWCVG/QIOjkq1fk5laWS0xO47RCUS65YTXAUcnOgNAxWxhIR+rIYxxbwOcj3iWW1r8Jlh6C6YBwlxDzdYDCuW0cVcg4I+r8bBAF0afFmxs0rOTFGrptXdIC8lWw4CNIWdl4u66KAWvOQu4AcghZx4btqiQyQQ1BbQfc3UQgH7IAcgpqG3Q0F7IAcgjSHHZBDkOawA3II0hx2QA5BmsMOyCFIc9gBOQRpDjsghyDNYQfkEKQ57IAcgrSG3QbkEBQF2Mu8sSYPyCFIW9hFCSguSyU+o66cNARBesAuQY/dJt6fq8ui1hsE6QV7zpY16PbPVZeFVYcgPS27V122vkkEYIcgDWGvbxLBQTm48RCkMey+Xm/4lSFITze+KBs7el1c0VoJgrSEvcxdXLlls+rPnkAZZwjSEPakapgYuxlWHYL0hb0oas4nTVu8L1osQZCWsJfcPdwbznxcvCeCchCkJezSohspfo9pWHQI0hB2NUe3zVswR4cgPWEv52yDb/OZpLlSztERdYegUMG+v9rYsVjTW13uSxdu+yOr+LmbYM0hKGywS6ssGjvS/JtbNud8vdb5Pj/nTnEarPk1WHIICjns3LKZ+7OT1S7wNlWxVZXu0+NnMpaxvvr3yHWHoJAC71sqyyVXrM7Z5kdyE8ZHc86qs+f7GwiCQgz7fG45PwfIIah1/T93JlhvXQtrgAAAAABJRU5ErkJggg==;" parent="1" vertex="1">
          <mxGeometry x="583" y="1380" width="60" height="60" as="geometry" />
        </mxCell>
        <mxCell id="PtzTgGSPzgL4J4l-laeS-18" value="&lt;font style=&quot;font-size: 14px;&quot;&gt;AWS Management Services&lt;/font&gt;" style="rounded=0;html=1;fillColor=none;labelPosition=center;verticalLabelPosition=top;align=center;verticalAlign=bottom;spacingLeft=0;spacingTop=20;whiteSpace=wrap;spacingBottom=-30;spacingRight=0;dashed=1;" parent="1" vertex="1">
          <mxGeometry x="693" y="1341" width="112" height="149" as="geometry" />
        </mxCell>
        <mxCell id="PtzTgGSPzgL4J4l-laeS-19" value="AWS Code Deploy" style="outlineConnect=0;dashed=0;verticalLabelPosition=bottom;verticalAlign=top;align=center;html=1;shape=mxgraph.aws3.codedeploy;fillColor=#759C3E;gradientColor=none;aspect=fixed;" parent="1" vertex="1">
          <mxGeometry x="715" y="1381" width="60" height="72" as="geometry" />
        </mxCell>
        <mxCell id="PtzTgGSPzgL4J4l-laeS-20" value="&lt;font style=&quot;font-size: 14px;&quot;&gt;AWS Integration Services&lt;/font&gt;" style="rounded=0;html=1;fillColor=none;labelPosition=center;verticalLabelPosition=top;align=center;verticalAlign=bottom;spacingLeft=0;spacingTop=20;whiteSpace=wrap;spacingBottom=-40;spacingRight=0;dashed=1;" parent="1" vertex="1">
          <mxGeometry x="823" y="1341" width="112" height="149" as="geometry" />
        </mxCell>
        <mxCell id="PtzTgGSPzgL4J4l-laeS-21" value="AWS MSK" style="sketch=0;points=[[0,0,0],[0.25,0,0],[0.5,0,0],[0.75,0,0],[1,0,0],[0,1,0],[0.25,1,0],[0.5,1,0],[0.75,1,0],[1,1,0],[0,0.25,0],[0,0.5,0],[0,0.75,0],[1,0.25,0],[1,0.5,0],[1,0.75,0]];outlineConnect=0;fontColor=#232F3E;fillColor=#8C4FFF;strokeColor=#ffffff;dashed=0;verticalLabelPosition=bottom;verticalAlign=top;align=center;html=1;fontSize=12;fontStyle=0;aspect=fixed;shape=mxgraph.aws4.resourceIcon;resIcon=mxgraph.aws4.managed_streaming_for_kafka;" parent="1" vertex="1">
          <mxGeometry x="843" y="1390" width="60" height="60" as="geometry" />
        </mxCell>
        <mxCell id="PtzTgGSPzgL4J4l-laeS-35" value="Availability zone 2" style="sketch=0;outlineConnect=0;gradientColor=none;html=1;whiteSpace=wrap;fontSize=12;fontStyle=0;shape=mxgraph.aws4.group;grIcon=mxgraph.aws4.group_availability_zone;strokeColor=#545B64;fillColor=default;verticalAlign=top;align=left;spacingLeft=30;fontColor=#545B64;dashed=1;" parent="1" vertex="1">
          <mxGeometry x="680" y="827" width="280" height="263" as="geometry" />
        </mxCell>
        <mxCell id="PtzTgGSPzgL4J4l-laeS-36" value="Microservices" style="text;html=1;align=center;verticalAlign=middle;whiteSpace=wrap;rounded=0;" parent="1" vertex="1">
          <mxGeometry x="737" y="857" width="132" height="30" as="geometry" />
        </mxCell>
        <mxCell id="PtzTgGSPzgL4J4l-laeS-37" value="Integration Service" style="rounded=0;whiteSpace=wrap;html=1;" parent="1" vertex="1">
          <mxGeometry x="697" y="897" width="120" height="30" as="geometry" />
        </mxCell>
        <mxCell id="PtzTgGSPzgL4J4l-laeS-38" value="Batch Processing&lt;div&gt;Service&lt;/div&gt;" style="rounded=0;whiteSpace=wrap;html=1;" parent="1" vertex="1">
          <mxGeometry x="827" y="897" width="120" height="30" as="geometry" />
        </mxCell>
        <mxCell id="PtzTgGSPzgL4J4l-laeS-39" value="CMS" style="rounded=0;whiteSpace=wrap;html=1;" parent="1" vertex="1">
          <mxGeometry x="697" y="947" width="120" height="30" as="geometry" />
        </mxCell>
        <mxCell id="PtzTgGSPzgL4J4l-laeS-40" value="Smart Engage" style="rounded=0;whiteSpace=wrap;html=1;" parent="1" vertex="1">
          <mxGeometry x="827" y="947" width="120" height="30" as="geometry" />
        </mxCell>
        <mxCell id="PtzTgGSPzgL4J4l-laeS-41" value="Onboard Service" style="rounded=0;whiteSpace=wrap;html=1;" parent="1" vertex="1">
          <mxGeometry x="697" y="997" width="120" height="30" as="geometry" />
        </mxCell>
        <mxCell id="PtzTgGSPzgL4J4l-laeS-42" value="Notification Service" style="rounded=0;whiteSpace=wrap;html=1;" parent="1" vertex="1">
          <mxGeometry x="827" y="997" width="120" height="30" as="geometry" />
        </mxCell>
        <mxCell id="PtzTgGSPzgL4J4l-laeS-47" value="" style="edgeStyle=orthogonalEdgeStyle;rounded=0;orthogonalLoop=1;jettySize=auto;html=1;" parent="1" source="PtzTgGSPzgL4J4l-laeS-43" target="PtzTgGSPzgL4J4l-laeS-46" edge="1">
          <mxGeometry relative="1" as="geometry" />
        </mxCell>
        <mxCell id="PtzTgGSPzgL4J4l-laeS-43" value="AWS RDS Multi AZ&lt;div&gt;(Master Master)&lt;/div&gt;" style="sketch=0;outlineConnect=0;fontColor=#232F3E;gradientColor=none;fillColor=#C925D1;strokeColor=none;dashed=0;verticalLabelPosition=bottom;verticalAlign=top;align=center;html=1;fontSize=12;fontStyle=0;aspect=fixed;pointerEvents=1;shape=mxgraph.aws4.rds_multi_az;" parent="1" vertex="1">
          <mxGeometry x="430" y="1160" width="78" height="58" as="geometry" />
        </mxCell>
        <mxCell id="PtzTgGSPzgL4J4l-laeS-46" value="AWS Read Replica&lt;div&gt;(Single AZ)&lt;/div&gt;" style="outlineConnect=0;dashed=0;verticalLabelPosition=bottom;verticalAlign=top;align=center;html=1;shape=mxgraph.aws3.rds_db_instance_read_replica;fillColor=#2E73B8;gradientColor=none;" parent="1" vertex="1">
          <mxGeometry x="588.25" y="1156" width="49.5" height="66" as="geometry" />
        </mxCell>
        <mxCell id="PtzTgGSPzgL4J4l-laeS-49" value="&lt;div&gt;AWS&lt;/div&gt;DMS" style="ellipse;whiteSpace=wrap;html=1;aspect=fixed;labelBackgroundColor=none;fillColor=#ffe6cc;strokeColor=#d79b00;" parent="1" vertex="1">
          <mxGeometry x="680" y="1156" width="80" height="80" as="geometry" />
        </mxCell>
        <mxCell id="PtzTgGSPzgL4J4l-laeS-50" value="Amazon Redshift" style="sketch=0;points=[[0,0,0],[0.25,0,0],[0.5,0,0],[0.75,0,0],[1,0,0],[0,1,0],[0.25,1,0],[0.5,1,0],[0.75,1,0],[1,1,0],[0,0.25,0],[0,0.5,0],[0,0.75,0],[1,0.25,0],[1,0.5,0],[1,0.75,0]];outlineConnect=0;fontColor=#232F3E;fillColor=#8C4FFF;strokeColor=#ffffff;dashed=0;verticalLabelPosition=bottom;verticalAlign=top;align=center;html=1;fontSize=12;fontStyle=0;aspect=fixed;shape=mxgraph.aws4.resourceIcon;resIcon=mxgraph.aws4.redshift;" parent="1" vertex="1">
          <mxGeometry x="805" y="1156" width="78" height="78" as="geometry" />
        </mxCell>
        <mxCell id="PtzTgGSPzgL4J4l-laeS-24" value="Availability zone 1" style="sketch=0;outlineConnect=0;gradientColor=none;html=1;whiteSpace=wrap;fontSize=12;fontStyle=0;shape=mxgraph.aws4.group;grIcon=mxgraph.aws4.group_availability_zone;strokeColor=#545B64;fillColor=default;verticalAlign=top;align=left;spacingLeft=30;fontColor=#545B64;dashed=1;" parent="1" vertex="1">
          <mxGeometry x="383" y="830" width="277" height="260" as="geometry" />
        </mxCell>
        <mxCell id="PtzTgGSPzgL4J4l-laeS-25" value="Microservices" style="text;html=1;align=center;verticalAlign=middle;whiteSpace=wrap;rounded=0;" parent="1" vertex="1">
          <mxGeometry x="440" y="860" width="132" height="30" as="geometry" />
        </mxCell>
        <mxCell id="PtzTgGSPzgL4J4l-laeS-26" value="Integration Service" style="rounded=0;whiteSpace=wrap;html=1;" parent="1" vertex="1">
          <mxGeometry x="400" y="900" width="120" height="30" as="geometry" />
        </mxCell>
        <mxCell id="PtzTgGSPzgL4J4l-laeS-27" value="Batch Processing Service" style="rounded=0;whiteSpace=wrap;html=1;" parent="1" vertex="1">
          <mxGeometry x="530" y="900" width="120" height="30" as="geometry" />
        </mxCell>
        <mxCell id="PtzTgGSPzgL4J4l-laeS-28" value="CMS" style="rounded=0;whiteSpace=wrap;html=1;" parent="1" vertex="1">
          <mxGeometry x="400" y="950" width="120" height="30" as="geometry" />
        </mxCell>
        <mxCell id="PtzTgGSPzgL4J4l-laeS-29" value="Smart Engage" style="rounded=0;whiteSpace=wrap;html=1;" parent="1" vertex="1">
          <mxGeometry x="530" y="950" width="120" height="30" as="geometry" />
        </mxCell>
        <mxCell id="PtzTgGSPzgL4J4l-laeS-30" value="Onboard Service" style="rounded=0;whiteSpace=wrap;html=1;" parent="1" vertex="1">
          <mxGeometry x="400" y="1000" width="120" height="30" as="geometry" />
        </mxCell>
        <mxCell id="PtzTgGSPzgL4J4l-laeS-31" value="Notification Service" style="rounded=0;whiteSpace=wrap;html=1;" parent="1" vertex="1">
          <mxGeometry x="530" y="1000" width="120" height="30" as="geometry" />
        </mxCell>
        <mxCell id="PtzTgGSPzgL4J4l-laeS-52" value="Nyx (API gateway)" style="rounded=0;whiteSpace=wrap;html=1;" parent="1" vertex="1">
          <mxGeometry x="400" y="1047" width="120" height="30" as="geometry" />
        </mxCell>
        <mxCell id="PtzTgGSPzgL4J4l-laeS-53" value="Temporal" style="rounded=0;whiteSpace=wrap;html=1;" parent="1" vertex="1">
          <mxGeometry x="530" y="1047" width="120" height="30" as="geometry" />
        </mxCell>
        <mxCell id="PtzTgGSPzgL4J4l-laeS-54" value="Nyx (API gateway)" style="rounded=0;whiteSpace=wrap;html=1;" parent="1" vertex="1">
          <mxGeometry x="697" y="1047" width="120" height="30" as="geometry" />
        </mxCell>
        <mxCell id="PtzTgGSPzgL4J4l-laeS-55" value="Temporal" style="rounded=0;whiteSpace=wrap;html=1;" parent="1" vertex="1">
          <mxGeometry x="827" y="1047" width="120" height="30" as="geometry" />
        </mxCell>
        <mxCell id="PtzTgGSPzgL4J4l-laeS-59" value="AWS Route 53" style="sketch=0;points=[[0,0,0],[0.25,0,0],[0.5,0,0],[0.75,0,0],[1,0,0],[0,1,0],[0.25,1,0],[0.5,1,0],[0.75,1,0],[1,1,0],[0,0.25,0],[0,0.5,0],[0,0.75,0],[1,0.25,0],[1,0.5,0],[1,0.75,0]];outlineConnect=0;fontColor=#232F3E;fillColor=#8C4FFF;strokeColor=#ffffff;dashed=0;verticalLabelPosition=bottom;verticalAlign=top;align=center;html=1;fontSize=12;fontStyle=0;aspect=fixed;shape=mxgraph.aws4.resourceIcon;resIcon=mxgraph.aws4.route_53;" parent="1" vertex="1">
          <mxGeometry x="790" y="520" width="60" height="60" as="geometry" />
        </mxCell>
        <mxCell id="w8h_iJZJ_aDkFzz_cRFC-2" value="" style="edgeStyle=orthogonalEdgeStyle;rounded=0;orthogonalLoop=1;jettySize=auto;html=1;exitX=0.5;exitY=0;exitDx=0;exitDy=0;exitPerimeter=0;startArrow=classic;startFill=1;endArrow=none;endFill=0;" parent="1" source="PtzTgGSPzgL4J4l-laeS-63" target="w8h_iJZJ_aDkFzz_cRFC-1" edge="1">
          <mxGeometry relative="1" as="geometry">
            <mxPoint x="746" y="520" as="sourcePoint" />
          </mxGeometry>
        </mxCell>
        <mxCell id="PtzTgGSPzgL4J4l-laeS-73" value="" style="edgeStyle=orthogonalEdgeStyle;rounded=0;orthogonalLoop=1;jettySize=auto;html=1;dashed=1;" parent="1" source="PtzTgGSPzgL4J4l-laeS-63" target="PtzTgGSPzgL4J4l-laeS-72" edge="1">
          <mxGeometry relative="1" as="geometry" />
        </mxCell>
        <mxCell id="PtzTgGSPzgL4J4l-laeS-74" value="Logs" style="edgeLabel;html=1;align=center;verticalAlign=middle;resizable=0;points=[];" parent="PtzTgGSPzgL4J4l-laeS-73" vertex="1" connectable="0">
          <mxGeometry x="0.0625" y="1" relative="1" as="geometry">
            <mxPoint as="offset" />
          </mxGeometry>
        </mxCell>
        <mxCell id="PtzTgGSPzgL4J4l-laeS-75" value="" style="edgeStyle=orthogonalEdgeStyle;rounded=0;orthogonalLoop=1;jettySize=auto;html=1;" parent="1" source="PtzTgGSPzgL4J4l-laeS-63" target="PtzTgGSPzgL4J4l-laeS-23" edge="1">
          <mxGeometry relative="1" as="geometry" />
        </mxCell>
        <mxCell id="PtzTgGSPzgL4J4l-laeS-63" value="AWS&amp;nbsp;&lt;div&gt;ALB&lt;/div&gt;" style="sketch=0;points=[[0,0,0],[0.25,0,0],[0.5,0,0],[0.75,0,0],[1,0,0],[0,1,0],[0.25,1,0],[0.5,1,0],[0.75,1,0],[1,1,0],[0,0.25,0],[0,0.5,0],[0,0.75,0],[1,0.25,0],[1,0.5,0],[1,0.75,0]];outlineConnect=0;fontColor=#232F3E;fillColor=#8C4FFF;strokeColor=#ffffff;dashed=0;verticalLabelPosition=bottom;verticalAlign=top;align=center;html=1;fontSize=12;fontStyle=0;aspect=fixed;shape=mxgraph.aws4.resourceIcon;resIcon=mxgraph.aws4.elastic_load_balancing;" parent="1" vertex="1">
          <mxGeometry x="505" y="607" width="78" height="78" as="geometry" />
        </mxCell>
        <mxCell id="PtzTgGSPzgL4J4l-laeS-65" value="" style="edgeStyle=orthogonalEdgeStyle;rounded=0;orthogonalLoop=1;jettySize=auto;html=1;exitX=1;exitY=0.5;exitDx=0;exitDy=0;exitPerimeter=0;" parent="1" source="w8h_iJZJ_aDkFzz_cRFC-6" target="PtzTgGSPzgL4J4l-laeS-63" edge="1">
          <mxGeometry relative="1" as="geometry">
            <mxPoint x="360" y="619" as="sourcePoint" />
          </mxGeometry>
        </mxCell>
        <mxCell id="w8h_iJZJ_aDkFzz_cRFC-9" value="" style="edgeStyle=orthogonalEdgeStyle;rounded=0;orthogonalLoop=1;jettySize=auto;html=1;" parent="1" source="w8h_iJZJ_aDkFzz_cRFC-14" target="w8h_iJZJ_aDkFzz_cRFC-8" edge="1">
          <mxGeometry relative="1" as="geometry" />
        </mxCell>
        <mxCell id="w8h_iJZJ_aDkFzz_cRFC-13" value="" style="edgeStyle=orthogonalEdgeStyle;rounded=0;orthogonalLoop=1;jettySize=auto;html=1;entryX=0.831;entryY=0;entryDx=0;entryDy=0;entryPerimeter=0;startArrow=classic;startFill=1;" parent="1" source="PtzTgGSPzgL4J4l-laeS-66" target="PtzTgGSPzgL4J4l-laeS-23" edge="1">
          <mxGeometry relative="1" as="geometry" />
        </mxCell>
        <mxCell id="PtzTgGSPzgL4J4l-laeS-66" value="NAT Gateway" style="outlineConnect=0;dashed=0;verticalLabelPosition=bottom;verticalAlign=top;align=center;html=1;shape=mxgraph.aws3.vpc_nat_gateway;fillColor=#F58534;gradientColor=none;" parent="1" vertex="1">
          <mxGeometry x="821" y="659" width="41.5" height="49" as="geometry" />
        </mxCell>
        <mxCell id="PtzTgGSPzgL4J4l-laeS-68" value="External Services&lt;div&gt;(Karix, Collinson,&amp;nbsp;&lt;/div&gt;&lt;div&gt;Gyftr, etc)&lt;/div&gt;" style="image;aspect=fixed;perimeter=ellipsePerimeter;html=1;align=center;shadow=0;dashed=0;spacingTop=3;image=img/lib/active_directory/internet_cloud.svg;" parent="1" vertex="1">
          <mxGeometry x="1090" y="660.6" width="69.52" height="43.8" as="geometry" />
        </mxCell>
        <mxCell id="PtzTgGSPzgL4J4l-laeS-71" value="" style="edgeStyle=orthogonalEdgeStyle;rounded=0;orthogonalLoop=1;jettySize=auto;html=1;startArrow=classic;startFill=1;entryX=1;entryY=0.25;entryDx=0;entryDy=0;entryPerimeter=0;exitX=0.5;exitY=0;exitDx=0;exitDy=0;exitPerimeter=0;endArrow=none;endFill=0;" parent="1" source="PtzTgGSPzgL4J4l-laeS-70" target="PtzTgGSPzgL4J4l-laeS-63" edge="1">
          <mxGeometry relative="1" as="geometry">
            <mxPoint x="746" y="580" as="targetPoint" />
          </mxGeometry>
        </mxCell>
        <mxCell id="w8h_iJZJ_aDkFzz_cRFC-12" value="" style="edgeStyle=orthogonalEdgeStyle;rounded=0;orthogonalLoop=1;jettySize=auto;html=1;" parent="1" source="PtzTgGSPzgL4J4l-laeS-70" target="PtzTgGSPzgL4J4l-laeS-23" edge="1">
          <mxGeometry relative="1" as="geometry">
            <mxPoint x="820" y="780" as="targetPoint" />
            <Array as="points">
              <mxPoint x="746" y="760" />
              <mxPoint x="821" y="760" />
            </Array>
          </mxGeometry>
        </mxCell>
        <mxCell id="PtzTgGSPzgL4J4l-laeS-70" value="AWS Amplify&lt;div&gt;(for React Apps)&lt;/div&gt;" style="sketch=0;points=[[0,0,0],[0.25,0,0],[0.5,0,0],[0.75,0,0],[1,0,0],[0,1,0],[0.25,1,0],[0.5,1,0],[0.75,1,0],[1,1,0],[0,0.25,0],[0,0.5,0],[0,0.75,0],[1,0.25,0],[1,0.5,0],[1,0.75,0]];outlineConnect=0;fontColor=#232F3E;fillColor=#DD344C;strokeColor=#ffffff;dashed=0;verticalLabelPosition=bottom;verticalAlign=top;align=center;html=1;fontSize=12;fontStyle=0;aspect=fixed;shape=mxgraph.aws4.resourceIcon;resIcon=mxgraph.aws4.amplify;" parent="1" vertex="1">
          <mxGeometry x="716" y="649" width="60" height="60" as="geometry" />
        </mxCell>
        <mxCell id="PtzTgGSPzgL4J4l-laeS-72" value="" style="sketch=0;points=[[0,0,0],[0.25,0,0],[0.5,0,0],[0.75,0,0],[1,0,0],[0,1,0],[0.25,1,0],[0.5,1,0],[0.75,1,0],[1,1,0],[0,0.25,0],[0,0.5,0],[0,0.75,0],[1,0.25,0],[1,0.5,0],[1,0.75,0]];outlineConnect=0;fontColor=#232F3E;fillColor=#7AA116;strokeColor=#ffffff;dashed=0;verticalLabelPosition=bottom;verticalAlign=top;align=center;html=1;fontSize=12;fontStyle=0;aspect=fixed;shape=mxgraph.aws4.resourceIcon;resIcon=mxgraph.aws4.s3;" parent="1" vertex="1">
          <mxGeometry x="620" y="670" width="60" height="60" as="geometry" />
        </mxCell>
        <mxCell id="PtzTgGSPzgL4J4l-laeS-78" value="" style="edgeStyle=orthogonalEdgeStyle;rounded=0;orthogonalLoop=1;jettySize=auto;html=1;" parent="1" source="w8h_iJZJ_aDkFzz_cRFC-6" edge="1">
          <mxGeometry relative="1" as="geometry">
            <mxPoint x="400" y="780" as="targetPoint" />
            <Array as="points">
              <mxPoint x="361" y="730" />
              <mxPoint x="400" y="730" />
              <mxPoint x="400" y="780" />
            </Array>
          </mxGeometry>
        </mxCell>
        <mxCell id="PtzTgGSPzgL4J4l-laeS-77" value="" style="sketch=0;outlineConnect=0;fontColor=#232F3E;gradientColor=none;fillColor=#01A88D;strokeColor=none;dashed=0;verticalLabelPosition=bottom;verticalAlign=top;align=center;html=1;fontSize=12;fontStyle=0;aspect=fixed;shape=mxgraph.aws4.transfer_for_sftp_resource;" parent="1" vertex="1">
          <mxGeometry x="195.54" y="676" width="58.46" height="60" as="geometry" />
        </mxCell>
        <mxCell id="PtzTgGSPzgL4J4l-laeS-84" style="edgeStyle=orthogonalEdgeStyle;rounded=0;orthogonalLoop=1;jettySize=auto;html=1;" parent="1" source="PtzTgGSPzgL4J4l-laeS-82" target="PtzTgGSPzgL4J4l-laeS-77" edge="1">
          <mxGeometry relative="1" as="geometry">
            <Array as="points" />
          </mxGeometry>
        </mxCell>
        <mxCell id="PtzTgGSPzgL4J4l-laeS-82" value="Hadoop Cluster" style="outlineConnect=0;dashed=0;verticalLabelPosition=middle;verticalAlign=middle;align=right;html=1;shape=mxgraph.aws3.hdfs_cluster;fillColor=#F58534;gradientColor=none;labelPosition=left;" parent="1" vertex="1">
          <mxGeometry x="102" y="674.5" width="61.5" height="63" as="geometry" />
        </mxCell>
        <mxCell id="PtzTgGSPzgL4J4l-laeS-87" value="" style="edgeStyle=orthogonalEdgeStyle;rounded=0;orthogonalLoop=1;jettySize=auto;html=1;" parent="1" source="PtzTgGSPzgL4J4l-laeS-85" target="PtzTgGSPzgL4J4l-laeS-86" edge="1">
          <mxGeometry relative="1" as="geometry" />
        </mxCell>
        <mxCell id="PtzTgGSPzgL4J4l-laeS-85" value="Embedded&amp;nbsp;&lt;div&gt;Bank SDK&lt;/div&gt;" style="sketch=0;outlineConnect=0;fontColor=#232F3E;gradientColor=none;strokeColor=#232F3E;fillColor=#ffffff;dashed=0;verticalLabelPosition=top;verticalAlign=bottom;align=center;html=1;fontSize=12;fontStyle=0;aspect=fixed;shape=mxgraph.aws4.resourceIcon;resIcon=mxgraph.aws4.apps;labelPosition=center;" parent="1" vertex="1">
          <mxGeometry x="190" y="370" width="60" height="60" as="geometry" />
        </mxCell>
        <mxCell id="FMV4FBrr6Bg7bfX7vypL-3" value="" style="edgeStyle=orthogonalEdgeStyle;rounded=0;orthogonalLoop=1;jettySize=auto;html=1;" parent="1" source="PtzTgGSPzgL4J4l-laeS-86" target="w8h_iJZJ_aDkFzz_cRFC-6" edge="1">
          <mxGeometry relative="1" as="geometry">
            <Array as="points">
              <mxPoint x="280" y="570" />
              <mxPoint x="280" y="630" />
            </Array>
            <mxPoint x="310" y="630" as="targetPoint" />
          </mxGeometry>
        </mxCell>
        <mxCell id="PtzTgGSPzgL4J4l-laeS-86" value="Bank&lt;div&gt;Service&lt;/div&gt;&lt;div&gt;Backend&lt;/div&gt;" style="image;aspect=fixed;html=1;points=[];align=center;fontSize=12;image=img/lib/azure2/compute/Kubernetes_Services.svg;" parent="1" vertex="1">
          <mxGeometry x="186" y="540" width="68" height="60" as="geometry" />
        </mxCell>
        <mxCell id="FMV4FBrr6Bg7bfX7vypL-2" value="" style="edgeStyle=orthogonalEdgeStyle;rounded=0;orthogonalLoop=1;jettySize=auto;html=1;entryX=0;entryY=0.5;entryDx=0;entryDy=0;entryPerimeter=0;exitX=0.419;exitY=1.016;exitDx=0;exitDy=0;exitPerimeter=0;" parent="1" source="FMV4FBrr6Bg7bfX7vypL-1" target="w8h_iJZJ_aDkFzz_cRFC-6" edge="1">
          <mxGeometry relative="1" as="geometry">
            <Array as="points">
              <mxPoint x="117" y="660" />
              <mxPoint x="280" y="660" />
              <mxPoint x="280" y="646" />
            </Array>
            <mxPoint x="300" y="634" as="targetPoint" />
          </mxGeometry>
        </mxCell>
        <mxCell id="FMV4FBrr6Bg7bfX7vypL-1" value="Realtime&lt;div&gt;Events&lt;/div&gt;" style="sketch=0;outlineConnect=0;fontColor=#232F3E;gradientColor=none;fillColor=#E7157B;strokeColor=none;dashed=0;verticalLabelPosition=bottom;verticalAlign=top;align=center;html=1;fontSize=12;fontStyle=0;aspect=fixed;pointerEvents=1;shape=mxgraph.aws4.mq_broker;" parent="1" vertex="1">
          <mxGeometry x="84" y="540" width="78" height="69" as="geometry" />
        </mxCell>
        <mxCell id="w8h_iJZJ_aDkFzz_cRFC-3" value="" style="edgeStyle=orthogonalEdgeStyle;rounded=0;orthogonalLoop=1;jettySize=auto;html=1;entryX=0.492;entryY=1.012;entryDx=0;entryDy=0;entryPerimeter=0;" parent="1" source="w8h_iJZJ_aDkFzz_cRFC-1" target="PtzTgGSPzgL4J4l-laeS-91" edge="1">
          <mxGeometry relative="1" as="geometry" />
        </mxCell>
        <mxCell id="w8h_iJZJ_aDkFzz_cRFC-1" value="Akamai" style="editableCssRules=.*;html=1;shape=image;verticalLabelPosition=bottom;labelBackgroundColor=#ffffff;verticalAlign=top;aspect=fixed;imageAspect=0;image=data:image/svg+xml,PHN2ZyB4bWxucz0iaHR0cDovL3d3dy53My5vcmcvMjAwMC9zdmciIHhtbG5zOnY9Imh0dHBzOi8vdmVjdGEuaW8vbmFubyIgd2lkdGg9IjIwIiBoZWlnaHQ9IjIwIiB2aWV3Qm94PSIwIDAgMjAgMjAiPiYjeGE7CTxzdHlsZSB0eXBlPSJ0ZXh0L2NzcyI+JiN4YTsJLnN0MHtmaWxsOiM0Mjg1ZjQ7fSYjeGE7CS5zdDF7ZmlsbDojNjY5ZGY2O30mI3hhOwkuc3Qye2ZpbGw6I2FlY2JmYTt9JiN4YTsJPC9zdHlsZT4mI3hhOwk8cGF0aCBjbGFzcz0ic3QxIiBkPSJNMTMuMTMgNS42M1YzLjIxTDEwIDB2Mi40MXptMy43NSA3LjVMMjAgMTBoLTIuNWwtMy4xMiAzLjEzem0tMTMuNzUgMEwwIDEwaDIuNWwzLjEzIDMuMTN6bTEwIDEuMjV2Mi40MUwxMCAyMHYtMi40MXoiIGZpbGwtcnVsZT0iZXZlbm9kZCIvPiYjeGE7CTxwYXRoIGNsYXNzPSJzdDIiIGQ9Ik02Ljg4IDUuNjNMMTAgMi40MVYwTDYuODggMy4yMXpNMTcuNSAxMEgyMGwtMy4xMi0zLjEyaC0yLjV6bS0xNSAwSDBsMy4xMy0zLjEyaDIuNXptNC4zOCA0LjM4TDEwIDE3LjU5VjIwbC0zLjEyLTMuMjF6bTAtNy41aDYuMjV2Ni4yNUg2Ljg4eiIgZmlsbC1ydWxlPSJldmVub2RkIi8+JiN4YTsJPHBhdGggY2xhc3M9InN0MSIgZD0iTTYuODggMTMuMTNsNi4yNS02LjI1djYuMjV6IiBmaWxsLXJ1bGU9ImV2ZW5vZGQiLz4mI3hhOwk8cGF0aCBjbGFzcz0ic3QwIiBkPSJNMTAgMTBsMy4xMy0zLjEydjYuMjV6IiBmaWxsLXJ1bGU9ImV2ZW5vZGQiLz4mI3hhOzwvc3ZnPg==;" parent="1" vertex="1">
          <mxGeometry x="726" y="440" width="40" height="40" as="geometry" />
        </mxCell>
        <mxCell id="w8h_iJZJ_aDkFzz_cRFC-4" value="" style="group" parent="1" vertex="1" connectable="0">
          <mxGeometry x="669" y="326" width="105.08000000000004" height="81" as="geometry" />
        </mxCell>
        <mxCell id="PtzTgGSPzgL4J4l-laeS-91" value="Consumer Facing&amp;nbsp;&lt;div&gt;Mobile App&lt;/div&gt;" style="image;sketch=0;aspect=fixed;html=1;points=[];align=left;fontSize=12;image=img/lib/mscae/App_Service_Mobile_App.svg;labelPosition=right;verticalLabelPosition=middle;verticalAlign=middle;" parent="w8h_iJZJ_aDkFzz_cRFC-4" vertex="1">
          <mxGeometry x="50" width="55.08" height="81" as="geometry" />
        </mxCell>
        <mxCell id="ciM4X08EdlkUxbQsbHlm-2" value="" style="shape=image;verticalLabelPosition=bottom;labelBackgroundColor=default;verticalAlign=top;aspect=fixed;imageAspect=0;image=data:image/png,/9j/4AAQSkZJRgABAQAASABIAAD/4QCIRXhpZgAATU0AKgAAAAgAAYdpAAQAAAABAAAAGgAAAAAABJKGAAcAAAAvAAAAUKABAAMAAAABAAEAAKACAAQAAAABAAABAKADAAQAAAABAAABAAAAAABBU0NJSQAAADEuODYuMC1VNUdWVDRJWjVBWURHWkZSVFJTWFA3RkdTRS4wLjEtNgD/7QA4UGhvdG9zaG9wIDMuMAA4QklNBAQAAAAAAAA4QklNBCUAAAAAABDUHYzZjwCyBOmACZjs+EJ+/8AAEQgBAAEAAwEiAAIRAQMRAf/EAB8AAAEFAQEBAQEBAAAAAAAAAAABAgMEBQYHCAkKC//EALUQAAIBAwMCBAMFBQQEAAABfQECAwAEEQUSITFBBhNRYQcicRQygZGhCCNCscEVUtHwJDNicoIJChYXGBkaJSYnKCkqNDU2Nzg5OkNERUZHSElKU1RVVldYWVpjZGVmZ2hpanN0dXZ3eHl6g4SFhoeIiYqSk5SVlpeYmZqio6Slpqeoqaqys7S1tre4ubrCw8TFxsfIycrS09TV1tfY2drh4uPk5ebn6Onq8fLz9PX29/j5+v/EAB8BAAMBAQEBAQEBAQEAAAAAAAABAgMEBQYHCAkKC//EALURAAIBAgQEAwQHBQQEAAECdwABAgMRBAUhMQYSQVEHYXETIjKBCBRCkaGxwQkjM1LwFWJy0QoWJDThJfEXGBkaJicoKSo1Njc4OTpDREVGR0hJSlNUVVZXWFlaY2RlZmdoaWpzdHV2d3h5eoKDhIWGh4iJipKTlJWWl5iZmqKjpKWmp6ipqrKztLW2t7i5usLDxMXGx8jJytLT1NXW19jZ2uLj5OXm5+jp6vLz9PX29/j5+v/bAEMAAgICAgICAwICAwQDAwMEBQQEBAQFBwUFBQUFBwgHBwcHBwcICAgICAgICAoKCgoKCgsLCwsLDQ0NDQ0NDQ0NDf/bAEMBAgICAwMDBgMDBg0JBwkNDQ0NDQ0NDQ0NDQ0NDQ0NDQ0NDQ0NDQ0NDQ0NDQ0NDQ0NDQ0NDQ0NDQ0NDQ0NDQ0NDf/dAAQAEP/aAAwDAQACEQMRAD8A/M+iiiv9fD+awooooAKKKKACiiigAooooAKKKKACiiigAooooAKKKKACiiigAooooAKKKKACiiigAooooAKKKKACiiigD//Q/M+iiiv9fD+awooooAKKKKACiiigAooooAKKKKACiiigAooooAKKKKACiiigAooooAKKKKACiiigAooooAKKKKACiiigD//R/M+iiiv9fD+awooooAKKKKACiiigAooooAKKKKACiiigAooooAKKKKACiiigAooooAKKKKACiiigAooooAKKKKACiiigD//S/M+iiiv9fD+awooooAKKKKACiiigAooooAKKKKACiiigAooooAKKKKACiiigAooooAKKKKACiiigAooooAKKKKACiiigD//T/M+iiiv9fD+awr9CP2K/2QPBX7TPh/xPrHivWtU0qTQ722tYU07ydrrNGzkv5sbnIIwMYr896/b/AP4JM/8AIkfEL/sL2H/pO9flnjPnmOyjhPEY/Lajp1YuFpK11ecU90+jPoeFsJRxOYwo143i09PkfP8A+13+wx8P/wBnj4Sr8QfDPiDWdSvDqtpYGC/+z+VsuFkJb91EjbhsGOce1fL37I/wN8P/ALQvxcHw98S6heabZf2Xd3/n2Pl+dvtzGFX94rrtO854zxX6+/8ABTz/AJNnX/sY9N/9Bnr87/8AgmR/yc2P+xd1L/0OCvzzg3jLOsX4aY7OcTiHLEQ9ryz0uuVK3S2l+x7eZ5Xhaee0cNCCUHa6Ptb/AIdSfB3/AKG/xN+dn/8AI9H/AA6k+Dv/AEN/ib87P/5Hr9HfiB4obwR4E8R+M0txdtoOlXupC3L+WJjaQvKELYbbu24zg4z0r8gh/wAFatbIz/wrW1/8G7//ACLX49wnn/ipxLSqVsmxMpxg0pe9SjZvVfFb8D6XMcHw/gZKOKppN7aSf5Gj8R/+CUn2fSpr34U+Mpbq/iUslhrkKIkxAztFxABsY9BuiI9SBzX5I+L/AAf4m8A+JL/wh4x06bStY02UxXNrOuHRuoIIyGVgQVZSVYEEEg1/Tf8Asv8A7Tfhf9prwdd69pFlJpGq6TMlvqmmSyCYwPIC0bpIAu+KQA7SVUgqwI4yfkf/AIKg/BnS9c+HFh8adOt1j1jw3cw2N/KowZ9Ou32JvPcwzsu30DtX3/hv4t8RYTiNcLcX6ylLkTaSlGb+FNx0lGWiT13TTsePnnDmCqYL+0Mt0SV/Jrrvs0fmp+x38APDn7R3xPvvA3ijUr7S7S00afUllsPL81pIpoIwp81HXbiUk8ZyBX3R8Yv+CbHws+HPwq8W+PdL8UeILm88P6PeajBDcfZTFJJbRs6q+2FW2kjBwQa8Q/4JZ/8AJwus/wDYq3n/AKVWlfsT+1L/AMm4fEv/ALFfVP8A0nejxR4+4gy3juhleBxUoUJeyvFWt70td03r6hkGT4OvlEsRVppzXNr6LQ/lx8I+EPE3j3xJYeEfB2nT6rrGpSiK1tLdcu7YyTzgKqgEszEKqgkkAV+rfw7/AOCUmsXunxXvxS8aJptzIoZrDRrcXBjz/C1xMVUsO+2MjPQmug/4JQ+ANIew8a/E+5hSTUkuYNEtJGGWhhEYnn2+hkLRgn0TFfo1+0V8c9I/Z4+GV18RtY06fVhFcwWdvZ27iMy3FwSFDSMCEQAElsHpgAkitfFPxa4iXEf+q3C/uzTjG9ouUpySdlze7FK6V973d0ieHuHMF9R/tDH6p3dtbJL01f8AWh8Qj/glF8JMc+MvEhP+7af/ABiq19/wSp+EttZXFynjHxGWiidxlbQjKqTz+5Fef/8AD2uX/omQ/wDB1/8AcdV7z/grJLdWk9qPhmq+dG8eTrWcbgRnH2SvHhlnjZzLmnK3+Oh/mdLxHCttEvun/kfjuw2sV9CRTaVjuYt6nNJX9ln5ee+/sxfCXRfjj8atB+GfiG8urCw1VLxpbiy2eev2a2lmXb5isvLIAcg8Zr9Z/wDh1L8Gv+ht8T/99Wf/AMjV+dv/AAT3/wCTsvBv/XPVP/SC4r90/wBq74g+KfhZ+z/4u8e+C7lLTWtKgtntZpIknVGluoYmJRwVb5HI5HvX8oeM/FvE2E4vwmS5Fi3SVaFNJaW5p1Jxu3ZvtffRbH6LwvluAq5bUxWLp83K362ST7nx9/w6l+DX/Q2+J/8Avqz/APkaq13/AMEo/hJJbSJY+MvEcM5HySSraSop9SghQsPbcPrXwP8A8PGP2sP+hmsf/BRZ/wDxqvsz9ij9uj4m/FL4qQfCv4sNaal/bUFw+m6hb2yWssNxbRtMY5FixG8bxo2DtDBgOSDxw59kfi5lGX1czq5lGcKScmoyTdlq3aVOKdlq1fbozbB4rhvE1o0I0GnJ2V1pf5SZ+cP7Sn7Mfjn9mrxTBo/iN01LSNSDvpWsW6FIbpY8b0ZSSYpkyNyEnggqSOaj/ZQ+EGg/HP45aF8PPE95JaaVcpc3V15DBJp47SJpTDGxztZ8YJxkLuI5Ar9uf+CivhfS/EH7LfiHUr5F+06BdWGo2chHzJKbhLdgD/tRzOpHfNfgL8IPDHxQ8V+PdPsvg5DeTeK7TffWRsJlt7iL7OMtIsjuijaDz83IOMHOK/T/AA/43xvFXBVfGYisqOIgp03V0UVJRTVTsrKSb6JptWVkeBnOVUsvzWFOEXKDs+XdtX2/A/SH9vH9jv4P/Bv4Zaf8R/hnDNos8WpW+m3NjLdS3MV0lwjkOhmZ3WVCmTg7SueARX5JV9o/tIeGf20b7w5aeK/2jYdVk0TS5kt7eS6msxbxT3HygiG1fBkfGN5QnHGcV4D4B+CPxb+Kdhdan8OvCuo+ILSymFvcTWUYdY5SocI2SOdpBr6Hw7rVMt4di85zOniHGTvV9opRV2rR529WvPXW2yRxZ1BV8a1haDhdfDaz9bHllFfSH/DH/wC09/0TXXv+/C//ABdH/DH/AO09/wBE117/AL8L/wDF19Z/rdkX/QbS/wDBkP8AM8/+y8Z/z6l9zPm+ivTviB8F/it8Krezu/iN4X1Dw9DqDvFavexhBM8YDMq4JyQCCa8xr2MJjcPiqSr4Wopwezi007ea0OSrSnSlyVE0+z0CiiiukzP/1PzPooor/Xw/msK/b/8A4JM/8iR8Qv8AsL2H/pO9fiBX7f8A/BJn/kSPiF/2F7D/ANJ3r8X+kD/yRGK9af8A6cifVcGf8jWHpL8meuf8FPP+TZ1/7GPTf/QZ6/O//gmR/wAnNj/sXdS/9Dgr9EP+Cnn/ACbOv/Yx6b/6DPX53/8ABMj/AJObH/Yu6l/6HBX5XwB/yaHMf+43/pMT6LOP+Skof9u/qfuj8b7K81H4M+PNP0+CS6urnw1q0UMEKGSSWR7SVVRFUEszEgAAZJr+XAfBP4y4H/FBeJ//AAT3n/xqv63XdI0aSRgqqCWYnAAHUk1Sg1XS7qQQ2t5bzSHJCRyqzHHXgHNfkPhl4tYvg/DV6GHwyqqo1Jttq1lbomfRZ9w5TzOcJTqctlbY/Mz/AIJn/A7x38NPDHirxp470250WTxNJZwWNjeRtDceRZiUtNJEwDIHaXCBgCQpOMEZ9Y/4KM+KtO8Pfsua9pl26i48Q3mn6daIfvNILhLlyB/sxwMSa+4b25+xWc955Us/kRPL5UK75ZNgJ2ouRlmxgDPJr+ZL9rr9qDX/ANpHxzHK1rNpHhvQTLBpWlzH98jMQJZ7gDjz32gFRxGoCgk7ifqvD/BZlx9x1/rJiIqMKU4VJ22XLb2cV1bfKrvsm+yODOatDJ8o+pQd3JNL57v8T3P/AIJZ/wDJwus/9iref+lVpX7E/tS/8m4fEv8A7FfVP/Sd6/Hb/gln/wAnC6z/ANiref8ApVaV+xP7Uv8Aybh8S/8AsV9U/wDSd66fGb/k5WG/7gf+lGfDH/Iin/2/+R+UP/BMr49+GvAviHXPhJ4uu49Pi8UTwXmk3M7BIjfRr5TwMx4Vpk2eXngshXqyg/tf408E+FPiL4avfB/jbTINX0fUECXFrcDKNggqQQQyspAKspDKRkEGv4/K+z/g/wDt5/tB/CO3t9IGqx+KNFtwESw1xWuGjjHAWO5VlnUAcAFmUdlr9N8VfA/G5vmj4h4erKNd2cotuPvRSSlCS2ei0dtdeY8Hh7iylhsOsFjY3gtnvo+jX9eh92fFP/glV4X1Azah8HvFM+jytlk07WV+122f7q3EYWZB/vLKfevzB+Mv7Mfxn+A8vmfEDQJItNd/Li1azb7Vp8jHoPOQfu2PZZAjHsK/ZP4Kf8FJ/hH8SNRsvDfjmxuPBWr3jpDFLcSC50ySV+Av2hQrRbm4BkjVR3av0H1vQ9H8TaPeaB4gs4dR03UIWgurW4QSRTROMMrKeCDX55hfFzjrg3GQwPFVF1If30uZpbuFSOkrefN2bR7VThvKMzpOtl8uV+W1/NPb8D+Oiivdf2lvhZa/Bf44+K/h3pxZtP067WWwLncws7uNZ4VY9yiSBCe5XNeFV/Z+WZhRx+DpY7DO8KkYyj6SV1+DPy7EUJUasqM94tp/I+0v+Ce//J2Xg3/rnqn/AKQXFfvT+0j8L9Z+M/wU8TfDPw/d21jqGtw28cM95vECGG4imO/y1ZsFYyBhTya/Bb/gnv8A8nZeDf8Arnqn/pBcV+9f7R/xR1b4L/BbxL8TNDs7e/vtEigkht7suIXM1xFCd+wq3AkJGCORX8cePP1z/iIGXf2db2/JS5L2tz+1ny3vpa9tz9P4Q9n/AGNW9t8N5X9OVX/A/Ib/AIdTfGv/AKGzwt/33ef/ACNX1x+yN+wJe/Afx3/wszx9rtnrGr2UE0GmWumpILeA3ClJJnklVGd/LJRVCADcTknGPk//AIeufGH/AKE7w1/31d//AB6vXvgh/wAFO9W8X/ETSfCPxQ8M6dpmma1cxWMWo6ZLMDazzsEjaVJmcNEXIDFSpUHdyBivb4rwni/i8oxGHxqg6Ti+dQ9nzOPVK2uq3S1a0W9jky+pw3TxMJ0m+a+l72v0MT/gpF+1F4W1/RE+AngLUItTlF6lx4iurZg8MJtTmO0DglWk83DyYyE2Kp5JA+af+Ca3/J0um/8AYG1T/wBFrX6c/ts/sm+Dvi18PtY8deG9MgsPHGhWkt9DdW0YjbUIrdS8lvcBQBIzID5bn5lfAztJFfmL/wAE1Tn9qTTSO+i6p/6LWvQ4OzLJa/hXmGGyiLjKnTqe0UrN88o35rqyaaVo6LRWequ8syoYqHENGpiGmm1y22snt69z9MP+CmX/ACbBdf8AYd0v/wBDevzI/ZJ/bQtP2YvC2u+G7jwnL4hbWdRS+EyX62giCRLFs2mGXdnbnORX6b/8FMv+TYLr/sO6X/6G9fzr12+BvDeX57wHUy7NKfPSlWk2rtbKDWsWnv5mPFmOrYPN418O7SUV59+5+0f/AA9r0z/omVx/4Ok/+RK/R34BfFLxR8ZPAFt4/wDEPhKTwfb6mfM021nu/tU9xakfLcMBDF5ayH7gOSy/NwCM/i7+wd+yA/xl12P4ofEK0YeCNHn/ANGtpRgaxeRH7nPW2ib/AFp6O37sfx4+6P27/wBruH4M+H3+E3w3uUTxnqtsFuJ4CP8AiTWMgwGGOFuJF4iH8C/Px8mfzvj7gjhzEZ3S4R4Nwn+1XvUqc9SUaaW6d5NabydnbSK952Xt5Pm2NhhJZlmlT939lWSb/D7vv2PkD/gpn8d/CPxC8W6L8LPCji9fwZPdSalfIwMP2y4VENtHj7xhCfvGzgMdvVTX5cU5neRmkkYszEszMckk8kknkkmm1/XfB3C2G4dyejk+Fbcaa3e7bbcn5Xbbt02PzXNMwnjsTLE1NG/y6BRRRX0x55//1fzPooor/Xw/msK/b/8A4JM/8iR8Qv8AsL2H/pO9fiBX6VfsIftW/Cv9nXw34s0r4if2n5+s39rc232C1FwuyKJkbcS6YOT0r8o8bMoxuZ8I4jB5fSdSo3C0Yq7dpxb08lqfR8KYmlQzKFStK0bPV+h94/8ABTz/AJNnX/sY9N/9Bnr87/8AgmR/yc2P+xd1L/0OCvXP20/20fg18evg0vgTwH/a/wDaY1ezvf8ATbMQReVAsob5hI3PzjAxXyT+xh8Z/BvwH+M48eeO/tf9l/2TeWX+hQieXzZ2iK/IWXj5Dk5r854L4VzjDeGGOyrEYaUcRP2vLBr3ndRtZeZ7uaZhhp59RrwmnBct306n9EXx7/5Ib8Qv+xW1n/0jlr+V74dePfEPwv8AGui+P/Cs3kanol1HdQnJ2uF4eJwOqSoSjjurGv2w+KX/AAUX/Z38X/DPxZ4T0j+3vt2s6JqGn2vm6eqR+ddW7xJubzThdzDJxwK/BwcDFdf0feEcwy7KsfhM7wsoKpJe7NW5o8rT0e61szLjPMaNbEUamFqJuK3T2dz+uf4S/E3w98Yvh3onxG8MSbrLWLZZTGSC9vMvyzQPjo8UgZD64yOCK/EP/go9+zv/AMK3+IifFrwzbbPD3jKZjeLGuEtdXwWkHHAW5UGRf9sSe1c1+w7+2Bpv7O91rXhX4gfbbjwjqo+2Qizj8+W01BMKWVCy/JNGMPg8Min1r7K+Mn7c/wCyN8aPhtrfw48SL4h+zatblIphpas9tcp80M6Zm+9FIA3uMg8E18HkPB3EnAvG0quWYWpWwUnZuKcr05a6/wB6m/va7SPXxeZYHN8qUa9RRqrvp7y/R/r5Hyz/AMEs/wDk4XWf+xVvP/Sq0r9if2pf+TcPiX/2K+qf+k71+Cn7Enxy8Dfs+/FvUfGXj03rabc6JcadG1jbieQzSTwSKShdcKVjbnJwcV+gvxu/4KF/s++P/g/4y8EaB/bv9pa7ol7p9p5+niOLzriJkTe3mnauTycHAru8VeDM9x/H1DMcFhJzor2N5KLaVpa6+XUy4ezPCUcnnRq1Epe9pfyPzX/Zo/ZV8WftOTeIIfC+tado58PLaNMb9ZW837WZQuzylb7vlHOfUfh9Xf8ADqH4s/8AQ6+Hf+/V3/8AG680/YN/aZ+Gn7Odz4zl+Iv9o7deTTltPsFsLjm1Nx5m/Lpt/wBYuOuea/Rf/h51+zN/1MX/AILV/wDj1fT+IfEviXhM/r0OHsPKWFXLytUlJawi5ata+9f8jz8kwGR1MHCeMmlU1v71urt+B8meHv8AglB46/tm0PijxxpKaWsqNc/YLeeS5aMHLLGJAiBiOAxJA64PSv27t4EtreO2izsiRUXJycKMDJ71+d11/wAFP/2bIIWkgg8SXLjpGmnRqSfq86gfnXxv8ef+Cmvi3xzot34V+EOjyeFLS8RoZ9VupVl1IxsCCIVj/d25ION+6Rh/CVPNflWbcJ+JfHOKoUs6oOEad7SnGNOMVK3M7Kzlstk9j6HD5jkWU05Sw0rt9E227beSPmH9t/xrpnjz9p7xrq+jSrPZ2lxBpccqEMrtp8EcEhBHBHmo4B7gV8oUpJYlmJJJySeSSaSv7ZyLKqeWZdh8tpO8aUIwT7qKSv8AOx+VYzEvEV515bybf3n2l/wT3/5Oy8G/9c9U/wDSC4r9w/2wvB3ifx/+zj4z8I+DdPl1XWNQgtVtbOEqJJTHdwyMF3FRwqk8ntX8+37J/wAUfC/wZ+PHh34i+MvtP9kaYl8s/wBki86bNxaywptTK5+dxnngc1+yn/Dzj9mT+94h/wDBZ/8Aba/l7xq4d4ircZYPOcmwcqyowpu6i3HmhUnKzt8r+TP0DhXG4OOWVMNiaijzOS31s0lc/H//AIYt/am/6Jzq3/fUH/x2vavgF+wP8ePEHxK0W68feH5vC3h7TL23vb+6vJYvMkjgcSeVBHG7szybdu4gKoOSeAD+i3/Dzj9mT+94h/8ABZ/9trM1X/gqJ+zpZ2jy6ZZeJNRnA+SFbGKEMfd5JwAPzrox3iD4p4vDzwtLJ+RzTXMoTur6XXNK1+19CaWS8P0pqpLE3tra6/RXPvLx7r+leFfBGv8AiXXJUh0/TNNurq5dyAojiiZj17nGAO5OK/n5/wCCa53ftS6cwGM6Nqhx6fu1rK/af/bm8fftD2LeENOs18MeEDIsklhFKZrm9ZDlDdTYUFVIDCNVC7sEliARwP7HHxg8IfA343Wfj/xz9qGlQadfWrmzh8+XzLhAE+TcvGRyc8V08GeFmbZFwTm1HFRvicTTaVOPvNWjJRWmjk3J6K621vcyzPiDDYvNsPKm/cg93pu1f5aH7Bf8FMv+TYLr/sO6X/6G9fkZ+yN+y9rf7SPjsQXIms/CGjukut6gg2kqeVtYW6edKB1/gXLH+EN9eftm/tqfBb47fBWbwF4EOrHVJNTsrsfbLLyIvLt2Yv8APvbnngY5qH9i39s/4K/AX4MDwL46/tVdVOrXl632Ky8+IxziMIS+9ctheRjiseEMLxZw54dVsPgMHNYyVWSUeV80YyS99Lra2nS+vSzvMp5djc6jOtUXs1FddG10ufoB+0d8bPDn7J/wjs9F8CaOsmsSW39n+GtHtIGeGBYlC+fKEBxDDkE5O6RyFzyzD+cTxD/wnfizXb/xN4kt9T1DVNTne6u7qeCVpJZpDlmJ2/kBwBwMAV+9/wDw84/Zk67vEP8A4LP/ALbS/wDDzj9mT+94h/8ABZ/9tr53w5xnE/CeHqKnw9Vq16jvOo5NOWuit7N2S3eru7t9Eu3O6OBzGcebGRjCO0UlZfifz23WmanYosl9Z3FsrHCtNE8YJ9AWAyao1+nP7df7Wnwm/aH8EeGtA+HjambvStWe8uPt1p9nTymgeMbTvbJ3MOPSvzGr+p+EM5x+aZZDGZlhXh6rbTg3dqzsndqO612Pz3M8LRw9d0qFTnjpqFFFFfTHnn//1vzPooor/Xw/msKKKKACiiigAooooAKK3LLSwti+s6gCtqh2RL0M8v8AdH+yOrH04HNYh5Oa87B5pQxdWrSw75vZvlk1tzdYp9XHTm6Ju17ppetmGS4nA0KNbFLl9quaMX8XJspNdFLXl6tLmtyuLaUUUV6J5IUUUUAFFFFABRRRQAUUUUAFFFFABRRRQAUUUUAFFFFABRRRQAUUUUAf/9f8z6KKK/18P5rCiitnRtDvNduPs1m0SsOvmOF/IfeP4A1w5nmeEy7CzxuOqKFKCvKUnZJeZ6WT5Njs1xlPL8tpOpWm7RjFXbfkjGor0i5+GmrRQGS3uIZpAM+WMrn2BIx+eK89uLee0me3uY2iljOGVhgg18/wvx7w9xHz/wBiYuNVw3SupLz5Wk7edreZ9Txn4ZcU8J+z/wBYcFOip/C3ZxfkpRbjf+7e/kQ12/hTwo2sMdQ1DMOnw5LMePM29QD2A7n+vRfCPhGXXJReXgMdih5PQykfwr7ep/DrXT+PddisrZPDem4jG0ecE4CR/wAKD69T7fWvzLjrxDxWYZzDgXhGf+1z/jVVqqEF8TX/AE8tt/K2l8TVv2Dw28KsFlfD8/Ejjmn/ALFT/gUXo8TUfwJ9VSb1f80U38CfNwnifWl1e+CWq+XZWo8q2jAwAg749Wr7X/YT+FHwC+OPiPWfh58V7C6k14QjUNHmt76W2WeCMBbiAohALpxID1Kluy18CV2Xw88da98MvHGieP8AwzL5WpaFeR3cPOFfYfnjf1SRCUYd1Y1+hZjwg6XDMsiyKrKjKMLU5Rk1LmWt5SWr5pfG+t29z8OzHirE5tnlTO82tOdSV5K2ltkorZRirKCWkUkloj1r9qf4G3HwB+Mur+BoElfSJit/oksmXaWwuCfLUtj5niYNEx6krnuK+/Zv2NvgN8Gf2XE+K/x0sL+78VQ6YLue2i1CW1Vr+8P+i2SohADKWRJDych26Cvu/VPhx8Kf2utL+Ffxsf8AeQaLcR61bLtVzNGy5ksZ/aO6RC45+aNlxhia/MT/AIKYfHr/AITb4h23wb8P3O/R/B7ebqJRspPq0q4KnHX7NGdns7uO1fheRccZ5xdist4coTnRq0byxcotxl+7fLy3Vnef2u0pL+Vnt4vKsJltOvjppSjKypp6rXW/y6eS8z3f9n39ir9mfxn+zv4Y+K/xGtru3uL3S5L/AFS8bVJbW2jWOSQM5+YJGiovJ6ADJrX/AOGbf+Cav/Q4aX/4Vi//AB2voT9nDwhZ/ED9hTw54H1C8bT7bXvC95p810gVmgS4edGcBsKSoOeeK+UL3/gl78LbWyuLpPiheMYYnkC/Z7TkqpOP9Z7V8dR4sVbNsxo5xnmJw7hWnGEYc8lyqTS2TStsl2PVnl7jh6MsNhYTvFNt2WtjwbwH+yP8OP2hf2i/F/h34UX8ulfC/wAHG2hn1KKf7fPezOpBFtLJuXEsiSEOdyqiAgEsBX2NffsX/sD+F7p9B8SeIoLbUrTCTxah4ojt7lWxn95H5ke0kc42j6V8Uf8ABPv9pzwX8B/EniDwt8RJWsdE8Um1kj1MI0iWl1a+Yo84KCwikWTlgDtKjIwSR9y/Fn9hT4F/tKX+o/FX4YeLRYaprkrXdxd6fNFqml3NxIMs7RhgyM55bZKBnPy5r6bjjNc4y3iFZbnGY4jDYGMIRp1YRcueSjHmlUkndyb5r7taaJO78/KaGGr4L2+GownVbblF6WV3ZJdrWPzK/bP+G/wO+GfjjQdK+BGo2+o6Vd6Sbi9kt9TGqKt157qAZFd9h2AHbn3rwP4M+GdJ8afFzwX4P19Hl0zW9e07T7xI3MbtBczpHIFccqSrHBHIrrvj9+zp8Q/2cvFEPhzxxDDLBfI8unalZkta3kcZAbaWCsrpkb0YAjIPIIJo/s3f8nCfDX/sa9H/APSuOv37LKsafCbq4XGPEWpTarN3lLSTTv3T07q1tz47ERcsy5alLk95Xj0Wx+ynjb9if9hX4bRWk/xAvG8PR37Olq2pa/JbCZogC4Te43FQwzjpkVzt5/wT8/ZV+K/gm81P4G+IZVu03x2upWeqDVLNblRkR3CEv8vI3BSjgHIz0P0t+1h+zF4d/aUsPDdn4g8USeGV0Ca7lieOGKXzzdLGpB8x0xt8sHjPWs/4F/APTv2Tfhd4rf4cSX/xD1W/kN+LdXt7ZrmaCPZFBFlxGnUliXZjngHAWv41wvHmPjktHG0c7rvMHJL2Um3T+NpXlL3Lctm7tro11X6fUymk8VKlPCw9jb4l8W3Za7n82GuaRf8AhzWdQ0DVo/JvdLup7O5jznZNbu0cgz3wymv3S+Cf/BOj4I6t8JvC2r/ErTtRm8TalpsN7qBiv5oFSS5HmrGI1IVTGjKh9SCTX5a/BnwDr/x0/al03w14qtJIrzVvEdxqPiC3kQxtCkEr3V6jq3KH5WjweQSBX6/ftGftGRfDn9rH4NeAIbtYNNDTNrUYbamzWc2NrvHQeUymT2BBr948Xc+z3EYjB5BkNd08Q6dSvUcG1pCD5YprW0pKSXnys+Q4aweEhCrjMXC8OZQV/N6v5K34n4U/FrwDe/C34meJvh7f7jJoOp3FojN1khVswyf9tIirfjX6ufDj9gH4U/Fj9l7QfGGh/a9N8da3ocd7BfSXcj2n23khZIDlRHJjadoyoORkjny3/gqZ8L/7B+JugfFOxh223iixNleMBx9u0/AVj7vA6Af9czX6I/Anx5YfDD9iLwl8QdVt5bqy0HwvDe3EUOPMaKMnfszwWC5IHcjGRXi8d+IGb4rhDJs4yStKNerUjFqL+KaTTi1s05rZ6NbnVlGTYanmWKw2KinCKbV+i7/cfzj6t4W1nwt4un8HeKrOWw1LT777Fe2so2vHIrhWH9QRwQQRkEV+oH7c37I/wV+BHwc0/wAZ/DuwvrXU7nW7axd7m+luU8iWCd2GxzjO6Nef8a98/bP/AGc9D+PXhPR/2kfg15ep6rb29tdXIsxu/tfSgQwkUDk3FuucA/MyAofmVRW5/wAFSDn9nHRyP+hmsv8A0luq0l4oV88zjh94OrKlKVSpCvSTatKPJpJdVq3G/RtbppKOQQwmGxiqRUklFwl5O+36nzp8af2P/gj4I/Y7T4y6Bp99H4nbRNBvvOkvpZIfP1B7VZj5TErgiVsDHHGOleQ/sUfsVj46NN8Q/ibHcWfgW18yK2SNzBNqlwuQxSQcpBCfvOPvONqnhiP18tPhbonxn/Zd8IfDrxLNNDpWpaB4aku/IOJJIrRLW4aNW/h8zy9hYcqCSOcV4F/wUB1zx78Kf2drLw78IdNTS/C8zJpGr3Vj+7fTtPKBIoY0UfJFOf3byZ+UYXrJkfFcP+J2d42lLhTDYp/XMRiJxVWcn+7pWikotv4m1LlS26e9JNenjMhwtKSzCpT/AHcIJ8qXxS138tr/AOSPx2/aah+BGlfESbwx8AbG4XRdG321zqdxeSXY1C6DYdod5IWGPG1WH+sOW+7tz86UdOBRX9j5VgHgsHTwjqSqOKtzTblKT6tt9X9y2Wh+Y4mt7arKpypX6LRIKKKK9AwP/9D8z6KKK/18P5rCnI7xuJI2KspyGBwQR6Gm0UpRUlZ7FRk4tSi7NHsfhbxXq+rAWDTWn2lBhROrhpQO+5Tgt6jHvWzqHhSfX9RhvdbaCOOFdvl224tJzn5nYDj6CvBo5JInWWJijoQVYHBBHQivTbH4mXcNusV9aLcSqMeYr7N3uwwefpX8k+IXhBxBlWZf2z4d0oRlNOLUVCE4cytJwcmo8rX/AG9F/C7fD/cnhZ48cL53lK4f8Vq1ScabjKMpOpUp1OV3iqkYqU+aL/7cmviV/i9E1zVbTw1pBmRFXYPLt4hwC2OBj0HU1843FxNdzyXNwxeSVizMepJ61sa/4hvfEN0J7rCJGCI4l+6gPX6k9zWDX6R4IeFb4QyudbMLSxtd3qSvey6QT623k+snu0kz8k+kZ40x47zmFDK7xy7DrlpRty8z+1Ucel7WivsxS0TckFFFFft5/Oh/QZ/wS6uLib9nHUIppHdLfxRfpErEkRoYLVyqg9AWZmwO5J71+B/ie6ub7xLq97eSvPcXF/dSyyyMWd3eVizMTySSck123gv43/GD4c6S+g+AvGOsaBp0k7XL2thdPDE0zqqs5VTjcVVQT6AV5hLJJNI80rF3kYszHklmOST7k1+a8IcD18oz/NM4qzjKOKlFxSveNua99La3Wx72Z5tDE4PD4aKadNO/nt/kf0g/ADwbd/ET9gfQ/Aen3Mdnc+IPCd9p0NxMC0cT3LTxqzBeSATk45r4W/4dQfFD/oetC/8AAe6r4K8O/tFfHfwjolp4b8L+PNe0vSrBPKtbO1vXjhhTJbaijgDJJrb/AOGrf2lf+imeJf8AwYSV8Fl/hvxtlGNxtbJMwowp16sqjUoOT95treL2T6Hs1s8ynE0qUcVRk3CKW9tj3HwP+wT428c/FTx58KbLxRpVte+AmsFurqWGcw3P9oRGVfLUDcNgGG3d+lfY3wM/4J4fGD4PfEzQ/G1r8SbSzs7C9hnv4NMjuUe9t0YF7d1YrGySrlTvyADkAkCvyh0r48/GjQ9f1bxVo/jXWrPWNeMJ1S+hu3Se8Nuu2LznHLbFOFz0FdBc/tS/tIXcD28/xL8TNHICrAalMpIPupB/Wvf4h4X49zCMsNSzCiqM4RjJOmm2+RKo/h2cuZpdE1sceCzHJ6NqkqMuZNtWlbS+nXorI/R7/gq7438L3dt4J+H9rcxXGvWVzdandRRsGe1tpI1jjEmPumZslQeSEz0xX5o/s3f8nCfDX/sa9H/9K468fvb691O7m1DUriW7urhzJNPO7SyyOerM7EsxPqTmp9I1fVNA1Wz1zRLqWx1DT547m1uYGKSwzRMGSRGHIZWAIPY19TwrwOsj4XXDtKrzvlmuZq15Tu27a2Sb2108zzswzf63mH12UbK608kf0a/ttfsu+NP2mdN8JWXg7VtM0t/D9xfS3B1IzASC6SJV2eTHJyDGc5x1GKy/2Lf2T/G37Mb+KL7xp4os9Sh1mO3WOysDN9lh+zl2ad2mVP3hDbeF4UHJPAH4nf8ADVv7Sv8A0UzxL/4MJP8AGud8TftA/HLxlpkmieKfHviHU9PmBWW1n1CYwyA9Q6BgGHswIr8ew/g7xgshXC1TMKKwd9UoNy+Pndm0vtea7XPpp8TZZ9b/ALQVGXtPXTa35H7a/steF/DPjf8Aac+Nf7Qfh5Yp9IfUY/D2kXUQBinljihbUJ42HBDyRphh94MT3rxT4hf8FHPhHZ+O9YspfhLb+I5NJv5rKHV5ri18y5S0kZElXfayOqnbuUbjgV+VnhH45/GPwDof/CM+CfGWs6HpW+SX7HY3Tww75fvttXu3c15USWJZiSScknqSa+mwXghha+a1sZns/a01CnTpKMpxcYU4qPvOLjdtJNpNq7fkcFbiypHDxp4RcsruUrpNNt30vc/oc/aUh0r9q39iRviP4atGS4hsovFFlbkiWSCWx3LeQFgBuZY/OQ4AyQDis235/wCCYhI/6ECT/wBBNfiV4a+Ofxj8HeHP+EQ8K+M9Z0rQx5oGn2106W2JyTKPLzjDliWHfJpi/G/4wL4N/wCFdr4x1geGPspsf7J+1P8AY/sx/wCWXl5xs9q8mj4KZlQw1LLqOJh7ClilXpp811DrB6b6LyvdnVLirDznKvKD55U+R7Wv3PuH/gn3+1ofhd4gi+Dvj+82+EtcuP8AiW3UzYTS7+U4wSeFt7hjhuySYbgM5r7O/wCCpv8AybtpX/Y0Wf8A6TXdfz+16T4o+MXxV8b+HbXwl4w8WatrOjWTRPb2N7dPNBE0KGONlVieVRioPoa+nzrwio1+MMLxVl81BxlzVY2fvNfajbaT+1fR773v52E4llDLamX1le6tF9vJ+XY/fP4zeNPEvw//AGBLbxP4QvX07VYfCXh23huoseZEt2tpbyFCfuv5cjBWHKnkcgV4n+wh+0Jo/wAc/h7f/s2/F5k1TUrXT5be1N6286rpBXa0TMxy01sDjOdxj2sOUY1+QesfHL4xeIPCY8B654y1i+8OCGC3Glz3Tva+TbFTCnlk42xlFKjttFcH4f8AEOu+E9atPEfhnULjS9UsJPNtby0kMU0L4IyjqQQcEg+oOK8LBeBkFkGLy3F1I/WJ1XVp1Yppwdlypuydk73W3vXWup11eLX9cp16afIoqMovr3/T7j3T9qD9n3W/2dPifeeELvzLjRrvdd6HfsOLmyZuFY9PNhPySD1AbG1hXznXo/jn4wfFL4mW1rZ/ELxTqniKGxkaW2TUbhpxC7jaxTd90sAAcdcV5xX7bw/RzGjl1Kjm04zrxVpSje0muuqVm1q+l720PlMbKhKvKWGTUHsn08gooor2TlP/0fzPooor/Xw/msKKKKACiiigAooooAKKKKACiiigAooooAKKKKACiiigAooooAKKKKACiiigAooooAKKKKACiiigAooooA//0vzPooor/Xw/msKKKKACiiigAooooAKKKKACiiigAooooAKKKKACiiigAooooAKKKKACiiigAooooAKKKKACiiigAooooA//0/zPooor/Xw/msKKKKACiiigAooooAKKKKACiiigAooooAKKKKACiiigAooooAKKKKACiiigAorvPAHwv+InxT1X+xfh54ev9eugQHFnCWjiz3llOI4h7uyiv0h+F3/BK/x5rKxX/wAWfEtp4dhbDNYaYv268x/daVtsCH3XzRXx/E3H3D/D6/4VcVGEv5d5P/t2N5fO1vM9PAZNjcY/9nptrvsvveh+UVS29vPeSiC0jeeU9EiUux+gXJr+lPwF/wAE/f2YfAyRyTeGm8SXaYJuNdna7yR/0xXZb/8AkOvq7w/4K8G+EoVtvC2habo8SjASwtIrZRj2jVa/Ds4+lFlFGTjluDnU85NQX4c7+9I+tw3AGIkr16ij6K/+R/KHpPwZ+L+vKH0XwP4jvVbo0GlXTqfxEeK66P8AZd/aPlUOnwz8UEHnnTJx+hWv6tKK+LrfSmzRv91gaaXnKT/Kx6cfD/D/AGqr+5f8E/k+vP2bf2g7BS938N/FMajv/ZNyw/8AHUNcBq3gHx3oOf7c8N6xp23qbuwuIAP++4xX9gFV7sA2swIyDG3B+lbYb6U2PT/f4CD9JtfmpE1PD6j9is18k/1R/9T8z6KKK/18P5rCiiigAooooAKKKKACiiigAooooAKKKKACiiigAoq/Y6ZqGpyeVYQPM3faMgfU9B+Negab8NLyUCTVLhYB/cj+d/xP3R+tfD8WeJPDXDSf9s4yMJfy/FN/9uRvL52t5n6NwT4ScXcWyX9g4GdSH89uWmv+35Wj8r38jzCpY4Zpm2Qozt6KCT+lfQdj4J8O2IB+zfaHH8U53/pwv6V08MEFuoS3jSJR2RQo/Sv55z76XeU0ZOGUYGdXznJU19yU2/nY/qjhr6C2d14qpnuY06P92nGVR+jbdNJ+nMj5sg8Na/cDMVhPg9yhUfqBV5fBPidufsLD6ug/9mr6q8MeFPEvjXV4tB8J6Zc6tqE33YLWMyMB/eY9EUd2YhR3NfpD8Hf2BY08jXPjNe+Y3DjRNPkIQe1xcDBb3WLA/wBs18DP6WHFOIl/smCoxX97nl+KnH8j3+JvoueGfCuH9pxBm1d1LaQg6anL0hySaXm2o+Z+OXw//Z5+MXxR1ddG8D+G7jUptwEsqsiW9uD/ABTTMwSMfU5PYGv1n+Bn/BMDwd4eFvrvxx1I+JL8Yf8AsewZ4NOjPXbJL8s0+O+PLX2YV+oPh3w14f8ACWkw6F4Y0620vT7cYjt7WNYox74Uck9yeT3Nblebn30guL80wv1bnhQvu6SlFvy5pSk1/wButM/m7FcIcO0cbKpllOp7L7KqyjOXq+WEI69rO3dmB4a8K+GvBmkQaB4S0qz0bTbYbYrWxgSCFffagAye56nvW/RRX4rVqzqzdSo25PVt6tvzZ68YqKtFaBRRRWYwooooAKguv+PaX/cb+Rqeuf8AFutW3hvwrrPiK8/499L0+6vZf9y3iaRv0WtaNOVSpGEFdtpImUkk2z//1fzPooor/Xw/msKKKKACiiigAooooAKKKKACiiigAoroNI8MaxrRBtICIj/y1k+WP8z1/DNeqaN8PdLsdsuon7bKOdpG2IH/AHep/E49q/JuOvGrhbhZSpYyv7Suv+XdO0pX/va2j/280+yZ+3+G30euM+M3GtgMN7LDv/l7VvCFu8dOaf8A25Fru0eS6V4f1bWnxYwMyZwZG+WMfVj/ACHNep6P8OtOtdsuqubqQc7FysY/qf0+leioiRoI41CIowFUYAHsBTiQBk8V/F3Hf0leJ895sPlr+qUH0g/fa86mjX/bij53P9BfDX6I3B3DfJis2j9dxC61Famn/dpap/8Ab7n3ViGC3gtohDbRpFGvRUAUD8BU1eneAfg18T/idMsfgrw9eX8LEKbtk8m0T/enk2x/gCT7V98fDP8A4J82kJi1H4sa2bluGOmaSSkf0kuXG9vcIi+zV+BRoYjEzdSV23q2+vnd7n7RxN4lcLcL0vY43ERjKKsqcNZabLlj8Plzcq8z80tA8O6/4r1SLRPDOnXOq38xwltaRNLIffCg4HqTgDua/QH4S/sCa7qnk6v8XdQ/sq2OG/srT3WS6Yeks/McfuE3n3Br9LPBfw88E/DrTRpHgnRrTSLbA3C3jAeQjvJIcvIfdmJrsq9XD5TCOtR3f4H8q8b/AEmM2zBSw3D9P6vTf23aVR+n2Y/Lma6SOK8DfDnwT8NdIXRPBGkW2lWoxv8AJXMkrD+KWRsvI3uxJrtaKK9VJJWR/NOLxdfFVpYjEzc5y1bk2233berCiiimc4UUUUAFFFFABRRRQAV8hft1fEGH4ffsy+LpvN8u716BdCsxnBeTUDskx/uweY34V9e1/Pr/AMFIP2gLb4m/Ey3+Gfhm5E+g+CXlS4kjbMdxq0nyzEEcEW6jygf75k7Yr9T8G+EqufcUYeCjelSaqTfS0XdJ/wCKVo/NvofP8TZjHB4Ccr+9JWXq/wDJan//1vzPooor/Xw/msKKKKACitXS9B1zW3MWi6dd6g46rawSTkfgisa72x+B/wAZdSx9i8DeIpc9MaXcj9THXlY3PcswbaxeIhC3804x/No9PC5LmGKs8NQnO+3LGT/JM8tor6L0z9kv9ozVceR4B1qMHvNavGP1Fem6N+wN+0TqRU3Phm5tweod4Iv1lmTH5V8PmvjJwXl6ftswhJrpC9R/+U1I+xyvwp4nxzXLh1TXerOnRX/lWUD4nqaC2uLqQRW0TyueiopY/kK/TTw//wAE4Pi27K19p+nQH+9fanGwH/AbcP8A1r3jQP8AgnT4yiRU1HxNoWmRnqlnDLOR+YhB/Ovx/iL6VGW0U4ZHgalaXedqcfX7Un6NRP1rh/6PeWJqrxNn+Hox6xo81efp7qUV6py9D8idM+Hut3uHvNtnGf7/AMz/APfI/qRXpGleB9D0zbI8f2uUfxzcjPsvT881+yGh/wDBPHwNbsr+I/F+pX2PvJaQw2in8X8817Z4d/Y1/Z48PlXk0JtWkX+PUruWcH6oGSM/98V/OXF3jJxxxGpUq2I9hSf2KV4K3nJNzfmnK3kf0FwrDwR4Mar4HDVMbXjtUqQ5nfuoz5IR8mocy7n4awRPPIttaxtJIeFjjUsx9gq817Z4R/Zv+N/jYxtonhHUEgk6XF8gsYceu6cpkf7oNfu74e8FeBvCUYi8L6Jpmkqox/odtFAfxKKCfxNdV5sX99fzFfkkMm61JH12dfStxMk4ZRgYx7OpJy/8ljy2/wDAmflL4K/4J5eJrwx3HxA8TWumxnBa20uNrmb6GWXy0U/RXFfY/gP9kj4G+AmjubfQV1m9jwRdaw32xtw7iNgIV/CMH3r6T82L++v5ijzYv76/mK76WAo09on4nxJ4x8XZ2nDFYyUYP7MPcXo+Wza/xNiQww28SQW6LFHGAqIgCqoHQADgCpKZ5sX99fzFHmxf31/MV18rPzFyu7sfRTPNi/vr+Yo82L++v5iizC6H0UzzYv76/mKPNi/vr+Yoswuh9FM82L++v5ijzYv76/mKLMLofRTPNi/vr+Yo82L++v5iizC6H0UzzYv76/mKw9b8V+F/DNv9s8SaxYaVB/z1vrqK2T/vqRlH61dOjUqSUKcW2+i1Jcklds36K+QviB+3V+zL8PoZfO8XQa9eR5xZ6Epv5GI7eYn7hf8AgUgr8sv2gP8AgpB8TPiba3Phn4Z27+CdBnDRyXCS+Zq1xGeCDMuFtwR1EWX7eZiv0/hPwb4oz2rFQw7pUnvOonFJeSfvS/7dT82jwcx4mwGDi+aalLstX/kvmfZv7b37b+mfDfTL/wCE/wAJ79Lrxhdo1vqOo27Bo9HjYYZVccG7I4AH+q+83zYFfgkzM7F3YszElmJyST1JPcmhmZ2Z3JZmJZmJySTyST3JNNr+7+AOAMu4Ty76lgvenLWc3vN/ol9mPTzbbf5FnOc18xr+1q6JbLol/n3Z/9k=;" parent="w8h_iJZJ_aDkFzz_cRFC-4" vertex="1">
          <mxGeometry y="15.5" width="50" height="50" as="geometry" />
        </mxCell>
        <mxCell id="w8h_iJZJ_aDkFzz_cRFC-7" value="" style="edgeStyle=orthogonalEdgeStyle;rounded=0;orthogonalLoop=1;jettySize=auto;html=1;" parent="1" source="PtzTgGSPzgL4J4l-laeS-77" target="w8h_iJZJ_aDkFzz_cRFC-6" edge="1">
          <mxGeometry relative="1" as="geometry">
            <mxPoint x="521" y="780" as="targetPoint" />
            <Array as="points" />
            <mxPoint x="254" y="730" as="sourcePoint" />
          </mxGeometry>
        </mxCell>
        <mxCell id="w8h_iJZJ_aDkFzz_cRFC-6" value="VPN" style="sketch=0;points=[[0,0,0],[0.25,0,0],[0.5,0,0],[0.75,0,0],[1,0,0],[0,1,0],[0.25,1,0],[0.5,1,0],[0.75,1,0],[1,1,0],[0,0.25,0],[0,0.5,0],[0,0.75,0],[1,0.25,0],[1,0.5,0],[1,0.75,0]];outlineConnect=0;fontColor=#232F3E;fillColor=#8C4FFF;strokeColor=#ffffff;dashed=0;verticalLabelPosition=bottom;verticalAlign=top;align=center;html=1;fontSize=12;fontStyle=0;aspect=fixed;shape=mxgraph.aws4.resourceIcon;resIcon=mxgraph.aws4.client_vpn;" parent="1" vertex="1">
          <mxGeometry x="322" y="607" width="78" height="78" as="geometry" />
        </mxCell>
        <mxCell id="w8h_iJZJ_aDkFzz_cRFC-10" value="" style="edgeStyle=orthogonalEdgeStyle;rounded=0;orthogonalLoop=1;jettySize=auto;html=1;" parent="1" source="w8h_iJZJ_aDkFzz_cRFC-8" target="PtzTgGSPzgL4J4l-laeS-68" edge="1">
          <mxGeometry relative="1" as="geometry" />
        </mxCell>
        <mxCell id="w8h_iJZJ_aDkFzz_cRFC-8" value="YBL EDP" style="sketch=0;pointerEvents=1;shadow=0;dashed=0;html=1;strokeColor=none;fillColor=#505050;labelPosition=center;verticalLabelPosition=top;verticalAlign=bottom;outlineConnect=0;align=center;shape=mxgraph.office.servers.cluster_server;" parent="1" vertex="1">
          <mxGeometry x="977.5" y="653" width="49" height="59" as="geometry" />
        </mxCell>
        <mxCell id="w8h_iJZJ_aDkFzz_cRFC-15" value="" style="edgeStyle=orthogonalEdgeStyle;rounded=0;orthogonalLoop=1;jettySize=auto;html=1;" parent="1" source="PtzTgGSPzgL4J4l-laeS-66" target="w8h_iJZJ_aDkFzz_cRFC-14" edge="1">
          <mxGeometry relative="1" as="geometry">
            <mxPoint x="864" y="685" as="sourcePoint" />
            <mxPoint x="978" y="685" as="targetPoint" />
          </mxGeometry>
        </mxCell>
        <mxCell id="w8h_iJZJ_aDkFzz_cRFC-14" value="VPN" style="sketch=0;points=[[0,0,0],[0.25,0,0],[0.5,0,0],[0.75,0,0],[1,0,0],[0,1,0],[0.25,1,0],[0.5,1,0],[0.75,1,0],[1,1,0],[0,0.25,0],[0,0.5,0],[0,0.75,0],[1,0.25,0],[1,0.5,0],[1,0.75,0]];outlineConnect=0;fontColor=#232F3E;fillColor=#8C4FFF;strokeColor=#ffffff;dashed=0;verticalLabelPosition=bottom;verticalAlign=top;align=center;html=1;fontSize=12;fontStyle=0;aspect=fixed;shape=mxgraph.aws4.resourceIcon;resIcon=mxgraph.aws4.client_vpn;" parent="1" vertex="1">
          <mxGeometry x="887" y="658.4" width="48" height="48" as="geometry" />
        </mxCell>
        <mxCell id="lTkC4v9Nz3u8lUyV1Hfs-5" value="" style="edgeStyle=orthogonalEdgeStyle;rounded=0;orthogonalLoop=1;jettySize=auto;html=1;" edge="1" parent="1" source="lTkC4v9Nz3u8lUyV1Hfs-1">
          <mxGeometry relative="1" as="geometry">
            <mxPoint x="522" y="780" as="targetPoint" />
            <Array as="points">
              <mxPoint x="444" y="760" />
              <mxPoint x="522" y="760" />
            </Array>
          </mxGeometry>
        </mxCell>
        <mxCell id="lTkC4v9Nz3u8lUyV1Hfs-1" value="Bastion Host" style="shape=rect;fillColor=#FA4D56;aspect=fixed;resizable=0;labelPosition=center;verticalLabelPosition=bottom;align=center;verticalAlign=top;strokeColor=none" vertex="1" parent="1">
          <mxGeometry x="420" y="676" width="48" height="48" as="geometry" />
        </mxCell>
        <mxCell id="lTkC4v9Nz3u8lUyV1Hfs-2" value="" style="fillColor=#ffffff;strokeColor=none;dashed=0;outlineConnect=0;html=1;labelPosition=center;verticalLabelPosition=bottom;verticalAlign=top;part=1;movable=0;resizable=0;rotatable=0;shape=mxgraph.ibm_cloud.bastion-host" vertex="1" parent="lTkC4v9Nz3u8lUyV1Hfs-1">
          <mxGeometry width="24" height="24" relative="1" as="geometry">
            <mxPoint x="12" y="12" as="offset" />
          </mxGeometry>
        </mxCell>
      </root>
    </mxGraphModel>
  </diagram>
</mxfile>
